<svg version="1.1" id="Layer_1" xmlns="http://www.w3.org/2000/svg" xmlns:xlink="http://www.w3.org/1999/xlink" x="0px" y="0px"
	 width="100%" viewBox="0 0 5000 4500" enable-background="new 0 0 5000 4500" xml:space="preserve">
<path fill="#FFFFFF" opacity="1.000000" stroke="none" 
	d="
M3272.000000,4504.000000 
	C2181.333252,4504.000000 1092.666626,4504.000000 4.000000,4504.000000 
	C4.000000,3004.000000 4.000000,1504.000000 4.000000,4.000001 
	C1670.666626,4.000000 3337.333252,4.000000 5004.000000,4.000000 
	C5004.000000,1504.000000 5004.000000,3004.000000 5004.000000,4504.000000 
	C4427.333496,4504.000000 3850.666748,4504.000000 3272.000000,4504.000000 
M2547.364502,1196.018921 
	C2551.684326,1208.267456 2556.004150,1220.516113 2556.831543,1232.711914 
	C2522.199219,1233.328491 2489.405273,1240.523315 2460.356445,1260.403076 
	C2451.024170,1266.789917 2442.303467,1274.062744 2433.140625,1280.706177 
	C2413.417480,1295.006226 2397.843262,1313.000977 2385.067871,1333.617798 
	C2370.270752,1357.497070 2358.267578,1382.785522 2348.395264,1408.979492 
	C2312.466797,1504.307251 2276.957764,1599.793457 2241.396729,1695.259399 
	C2240.296387,1698.213135 2240.362305,1701.601318 2239.853516,1704.995605 
	C2245.318848,1707.489990 2250.109863,1709.676514 2253.702637,1714.886963 
	C2248.933838,1728.017944 2244.021484,1741.099609 2239.479004,1754.308472 
	C2238.000977,1758.606445 2237.488770,1763.236450 2232.718750,1767.763794 
	C2224.061035,1767.806641 2215.403564,1767.886841 2206.745850,1767.887085 
	C1994.957520,1767.894653 1783.169189,1767.892700 1571.380859,1767.898315 
	C1565.387207,1767.898438 1559.372437,1767.655640 1553.404541,1768.064941 
	C1542.771118,1768.794434 1534.407349,1773.773438 1528.686523,1782.811768 
	C1520.846558,1795.197754 1516.861938,1808.076050 1523.995850,1822.321655 
	C1526.073730,1826.471313 1527.567383,1830.910278 1529.565552,1835.103760 
	C1543.867554,1865.119263 1558.111572,1895.163452 1572.601074,1925.088623 
	C1596.373291,1974.185913 1620.216797,2023.249023 1644.212158,2072.237549 
	C1683.434204,2152.313232 1722.802490,2232.317139 1762.107422,2312.352051 
	C1762.987793,2314.144531 1764.227173,2315.862305 1764.647339,2317.759521 
	C1765.919556,2323.504150 1766.870728,2329.319824 1764.656372,2335.911133 
	C1737.253662,2341.369385 1709.338623,2345.014404 1682.533691,2352.588379 
	C1538.440063,2393.305420 1435.232300,2481.627930 1376.349854,2620.005615 
	C1347.625854,2687.509277 1334.753540,2758.864258 1328.940796,2831.530273 
	C1322.867554,2907.450928 1325.458618,2983.382812 1333.530518,3059.000732 
	C1338.473633,3105.308838 1345.901489,3151.363037 1352.751831,3197.451172 
	C1355.588135,3216.533203 1360.077515,3235.288574 1366.953125,3253.479004 
	C1378.697632,3284.550293 1397.054321,3311.198242 1417.559448,3336.544189 
	C1415.154297,3337.633057 1412.835083,3339.002930 1410.330933,3339.768555 
	C1362.675415,3354.341064 1315.020020,3368.915283 1267.307617,3383.300537 
	C1257.167969,3386.357666 1246.804321,3388.672607 1235.977173,3388.124268 
	C1234.400757,3377.829590 1234.116577,3367.222900 1229.976318,3357.831299 
	C1173.798584,3359.149658 1120.738159,3376.681396 1082.443359,3399.673340 
	C1066.387695,3409.313232 1051.739502,3420.694092 1038.021973,3433.519775 
	C994.881104,3473.856445 993.948059,3553.869873 1047.869019,3596.055908 
	C1063.873047,3608.576660 1081.790405,3616.899902 1101.589355,3621.541504 
	C1114.827759,3624.645020 1127.561157,3624.869385 1140.963257,3621.291504 
	C1186.639648,3609.097168 1232.530029,3597.702637 1278.367920,3586.117676 
	C1285.351929,3584.352783 1292.390015,3582.042480 1301.515259,3584.118408 
	C1298.665039,3589.394287 1296.470215,3593.993164 1293.804810,3598.300781 
	C1281.093628,3618.844238 1271.228027,3640.591309 1265.544800,3664.136230 
	C1250.572266,3726.166992 1290.630737,3779.447754 1338.662964,3793.727051 
	C1362.354370,3800.770020 1385.911133,3800.688477 1409.624268,3794.175293 
	C1427.295044,3789.322021 1442.435669,3781.238281 1455.134399,3767.115967 
	C1511.771973,3704.129395 1572.126953,3644.759033 1633.574951,3586.491455 
	C1642.280762,3578.236572 1651.143921,3570.102783 1659.307251,3561.329590 
	C1674.202026,3545.321777 1675.336670,3521.564453 1661.674072,3504.606445 
	C1657.227783,3499.087646 1650.640503,3495.293945 1644.099487,3487.263428 
	C1643.389160,3465.976807 1642.678833,3444.690186 1645.031494,3423.632812 
	C1655.449097,3425.808105 1665.873047,3427.953369 1676.283325,3430.163574 
	C1755.083862,3446.895508 1834.373291,3460.983398 1914.246826,3471.317627 
	C1968.359009,3478.319092 2022.736328,3483.304199 2077.024658,3488.903809 
	C2137.335938,3495.125000 2197.877197,3498.340332 2258.451660,3499.471680 
	C2320.376221,3500.627930 2382.346436,3500.359131 2444.281250,3499.540039 
	C2482.884521,3499.029785 2521.502441,3497.000732 2560.034424,3494.452393 
	C2600.545410,3491.772949 2640.994141,3487.999268 2681.407959,3484.066162 
	C2711.873047,3481.101074 2742.258057,3477.277588 2772.645264,3473.563477 
	C2800.387451,3470.172607 2828.084961,3466.415771 2855.885010,3466.148193 
	C2841.613281,3525.515625 2827.333496,3584.881348 2813.074219,3644.251953 
	C2808.889404,3661.676514 2804.274414,3679.017334 2800.757080,3696.577148 
	C2797.655273,3712.061768 2806.189697,3724.375977 2821.166016,3727.982178 
	C2838.187744,3732.080811 2850.651367,3725.636475 2855.778809,3709.898926 
	C2857.215820,3705.488770 2858.232178,3700.934326 2859.310791,3696.415039 
	C2874.412109,3633.148193 2889.377930,3569.848389 2904.644775,3506.621582 
	C2909.144775,3487.985840 2914.481201,3469.552246 2922.639893,3450.898193 
	C2982.427002,3438.547852 3042.213867,3426.197510 3102.209717,3417.651611 
	C3094.447266,3471.702637 3086.794434,3525.770020 3078.895264,3579.801025 
	C3068.877686,3648.324219 3058.636230,3716.814697 3048.550781,3785.328125 
	C3046.805664,3797.184082 3045.284912,3809.074463 3043.791748,3820.965332 
	C3042.574463,3830.657715 3046.690918,3841.087402 3059.452881,3846.191162 
	C3081.759277,3855.112305 3098.764160,3840.631348 3100.403076,3824.650635 
	C3102.575439,3803.468506 3106.215332,3782.434570 3109.319092,3761.350830 
	C3118.046875,3702.060791 3126.915771,3642.791260 3135.555176,3583.488281 
	C3144.099121,3524.843994 3152.403320,3466.164551 3160.929443,3407.517334 
	C3161.397949,3404.296387 3162.940186,3401.231934 3167.284668,3397.467773 
	C3189.759766,3391.531006 3212.542969,3386.556641 3234.652100,3379.477051 
	C3300.755127,3358.309814 3349.452393,3316.735107 3378.427002,3253.170166 
	C3393.582764,3219.920654 3408.486572,3186.547607 3422.918945,3152.979004 
	C3459.711426,3067.400391 3491.370117,2980.070801 3514.932617,2888.048828 
	C3524.208984,2888.093018 3533.485596,2888.137207 3543.120117,2891.652100 
	C3543.839111,2896.257324 3544.416992,2900.889648 3545.298828,2905.463623 
	C3556.884521,2965.570068 3568.511719,3025.668701 3580.130371,3085.768799 
	C3595.538330,3165.468506 3610.994873,3245.158936 3626.343262,3324.870117 
	C3641.692139,3404.582520 3656.881836,3484.325439 3672.237061,3564.036621 
	C3687.969482,3645.707275 3703.808838,3727.356934 3719.644531,3809.007568 
	C3720.399658,3812.899414 3721.062988,3816.937988 3722.651123,3820.516602 
	C3728.135254,3832.875244 3742.201416,3839.166992 3756.205322,3835.439453 
	C3768.985352,3832.037842 3778.520752,3822.017334 3776.508301,3807.610107 
	C3775.863770,3802.997559 3775.197021,3798.381836 3774.320557,3793.809570 
	C3769.560547,3768.979492 3764.726318,3744.163574 3759.928711,3719.340576 
	C3743.136475,3632.454346 3726.317383,3545.573242 3709.567383,3458.678955 
	C3693.068604,3373.089111 3676.653564,3287.483398 3660.178955,3201.888916 
	C3644.710693,3121.522705 3629.148682,3041.174072 3613.766602,2960.791260 
	C3608.892578,2935.319580 3604.463867,2909.762939 3603.437500,2883.801758 
	C3613.344727,2883.077148 3623.246338,2882.264404 3633.160156,2881.644043 
	C3663.549561,2879.742432 3693.943359,2877.914551 3725.004150,2879.044434 
	C3726.290527,2883.521484 3727.587646,2887.995361 3728.861328,2892.476074 
	C3800.951416,3146.044189 3873.033936,3399.614258 3945.144043,3653.176758 
	C3948.421143,3664.699951 3951.791016,3676.201660 3955.391602,3687.627197 
	C3958.449951,3697.331055 3964.969971,3703.741211 3975.247070,3704.983154 
	C3987.107422,3706.415771 3997.991699,3703.831543 4005.475342,3693.630615 
	C4009.939453,3687.545410 4012.013428,3680.571045 4009.746582,3672.864502 
	C4008.243652,3667.755371 4006.948975,3662.585205 4005.493164,3657.461426 
	C3931.072754,3395.558838 3856.645020,3133.658203 3785.043213,2869.756348 
	C3819.981201,2865.174072 3854.976562,2860.985596 3889.839355,2855.888672 
	C3919.441406,2851.561035 3948.946289,2846.360596 3977.395508,2836.712402 
	C3984.897949,2834.167969 3992.189209,2830.798340 3999.215088,2827.115967 
	C4004.828369,2824.173828 4007.850586,2819.217041 4007.530029,2812.386963 
	C4006.657715,2793.806641 4006.038330,2775.214600 4006.476074,2754.018066 
	C4006.180908,2746.413818 4001.574463,2741.750488 3995.253174,2738.829834 
	C3989.242432,2736.052979 3983.038086,2733.371094 3976.634277,2731.831543 
	C3959.835205,2727.793213 3943.013184,2723.549805 3925.964600,2720.906494 
	C3868.699951,2712.028320 3810.935059,2707.580322 3753.121094,2705.037354 
	C3688.628418,2702.201172 3624.043945,2701.457275 3559.500244,2699.770996 
	C3553.518555,2699.614502 3547.542725,2699.226807 3542.002686,2695.389404 
	C3544.985840,2643.559082 3548.699219,2591.758057 3550.783447,2539.891602 
	C3554.044434,2458.739014 3556.948486,2377.557617 3558.624268,2296.359863 
	C3560.381836,2211.175781 3560.989502,2125.959717 3561.197021,2040.755371 
	C3561.345947,1979.505249 3559.551025,1918.284790 3552.155518,1857.358032 
	C3548.541504,1827.583130 3543.614502,1798.076538 3535.112793,1769.300049 
	C3528.277344,1746.164185 3518.669922,1724.234009 3502.735840,1705.707397 
	C3492.754883,1694.102417 3482.755615,1682.455566 3472.000732,1671.583130 
	C3408.229736,1607.115967 3332.652344,1560.877319 3248.567139,1527.988892 
	C3239.305420,1524.366455 3229.662354,1521.719849 3218.729980,1516.303589 
	C3210.979248,1495.089478 3203.616455,1473.723877 3195.396484,1452.693237 
	C3178.933105,1410.572754 3161.929443,1368.684814 3138.797607,1329.598022 
	C3081.650391,1233.033203 2997.910645,1178.051270 2885.769287,1167.175293 
	C2877.176514,1166.342163 2868.683594,1164.528687 2860.106445,1163.480103 
	C2846.948975,1161.871338 2833.771973,1159.508911 2820.579102,1159.340210 
	C2804.666016,1159.136963 2788.727783,1160.891968 2771.400146,1159.114502 
	C2756.967041,1140.915161 2742.127930,1123.020142 2728.199219,1104.442505 
	C2709.035400,1078.881836 2693.503418,1051.105591 2679.131592,1022.567200 
	C2669.621582,1003.682678 2658.245850,985.737915 2648.012207,964.539185 
	C2658.707275,947.449341 2664.673584,928.690002 2668.572021,909.009094 
	C2671.833008,892.547058 2672.711182,876.019226 2672.271973,859.361633 
	C2671.027344,812.163574 2655.184814,770.447632 2621.959229,736.835327 
	C2563.349121,677.543640 2492.144043,653.256226 2409.352783,665.147156 
	C2394.371582,667.298889 2379.126709,669.945190 2364.742920,677.804199 
	C2379.200684,686.884827 2396.388916,688.509094 2411.663574,698.094849 
	C2356.312744,707.725769 2324.746582,725.604980 2312.498047,754.321533 
	C2325.593994,757.194336 2339.764893,754.559937 2354.228271,762.556885 
	C2342.385498,767.233643 2332.587646,770.755432 2323.086914,774.950500 
	C2313.172119,779.328430 2305.229004,786.463745 2298.467041,794.851929 
	C2291.840820,803.071411 2286.148926,811.804016 2283.394043,823.025635 
	C2292.601807,824.901550 2300.427979,823.263672 2308.225586,822.929871 
	C2315.500488,822.618591 2322.765625,822.090210 2331.596191,823.486023 
	C2332.142334,824.072693 2332.688232,824.659363 2332.204590,827.738464 
	C2318.386719,839.991333 2304.498291,852.166504 2290.812012,864.564697 
	C2288.190918,866.939331 2286.365234,870.191895 2283.871338,873.430054 
	C2307.724365,885.462585 2331.577148,892.688354 2356.560059,900.092529 
	C2360.395508,913.472229 2364.348877,926.819580 2368.043457,940.238159 
	C2377.198486,973.490112 2385.484863,1007.002441 2395.498291,1039.991943 
	C2409.965332,1087.654785 2442.888184,1115.367676 2491.589111,1124.567261 
	C2500.691650,1126.286621 2509.909912,1127.392700 2519.707520,1131.643799 
	C2528.816162,1152.129028 2537.924805,1172.614136 2547.364502,1196.018921 
z"/>
<path fill="#414ADF" opacity="1.000000" stroke="none" 
	d="
M3220.196045,1518.620728 
	C3229.662354,1521.719849 3239.305420,1524.366455 3248.567139,1527.988892 
	C3332.652344,1560.877319 3408.229736,1607.115967 3472.000732,1671.583130 
	C3482.755615,1682.455566 3492.754883,1694.102417 3502.735840,1705.707397 
	C3518.669922,1724.234009 3528.277344,1746.164185 3535.112793,1769.300049 
	C3543.614502,1798.076538 3548.541504,1827.583130 3552.155518,1857.358032 
	C3559.551025,1918.284790 3561.345947,1979.505249 3561.197021,2040.755371 
	C3560.989502,2125.959717 3560.381836,2211.175781 3558.624268,2296.359863 
	C3556.948486,2377.557617 3554.044434,2458.739014 3550.783447,2539.891602 
	C3548.699219,2591.758057 3544.985840,2643.559082 3540.158691,2697.436035 
	C3521.754395,2699.462646 3505.194092,2699.443115 3488.550293,2697.593750 
	C3490.765869,2646.069092 3489.852783,2536.091064 3486.920654,2519.931641 
	C3484.729736,2519.056641 3482.364502,2517.605469 3479.833496,2517.206543 
	C3474.596924,2516.380859 3469.272217,2516.114990 3462.791992,2514.664062 
	C3397.671631,2502.541504 3333.461426,2501.747314 3269.117188,2509.075684 
	C3255.362793,2510.642334 3241.809814,2513.976074 3226.535156,2516.460938 
	C3220.627686,2517.731201 3216.349365,2519.036377 3212.125000,2520.324951 
	C3211.314941,2529.089844 3210.600586,2536.817383 3209.805420,2545.420410 
	C3204.343262,2546.041260 3199.843994,2546.608643 3195.332764,2547.055420 
	C3176.867920,2548.884277 3162.945068,2558.272705 3152.616943,2573.210449 
	C3130.026123,2605.882324 3137.307861,2647.325195 3170.179443,2669.708984 
	C3178.815918,2675.590088 3189.114014,2679.081299 3198.782227,2683.369629 
	C3202.284424,2684.922852 3206.176270,2685.597900 3210.076172,2686.727539 
	C3211.457764,2694.013184 3212.684570,2700.482666 3211.950928,2707.216797 
	C3189.404785,2708.761719 3168.827881,2710.224365 3148.230713,2711.285645 
	C3099.712402,2713.785645 3051.372803,2718.243652 3003.033691,2723.062500 
	C2959.977051,2727.354492 2917.136475,2732.919434 2874.515869,2740.235352 
	C2851.561035,2744.175781 2828.730957,2748.897217 2806.763184,2756.824219 
	C2799.956299,2759.280518 2793.392822,2762.728516 2787.230469,2766.549316 
	C2782.543457,2769.455322 2779.652344,2774.070801 2781.197021,2782.026855 
	C2781.103271,2800.506592 2781.672607,2817.156250 2781.430908,2833.793701 
	C2781.271240,2844.806152 2786.610840,2851.520752 2796.208252,2855.049561 
	C2805.552002,2858.485352 2815.063232,2861.742432 2824.764160,2863.884277 
	C2880.165527,2876.115723 2936.487793,2880.977539 2993.152832,2885.883057 
	C2992.365967,2893.450195 2991.795654,2899.428223 2990.419434,2905.214355 
	C2973.057617,2978.208496 2955.633545,3051.187988 2938.117432,3124.145264 
	C2917.500977,3210.015869 2896.835449,3295.874512 2876.068848,3381.708984 
	C2869.515381,3408.794922 2862.568604,3435.785889 2855.801758,3462.820312 
	C2828.084961,3466.415771 2800.387451,3470.172607 2772.645264,3473.563477 
	C2742.258057,3477.277588 2711.873047,3481.101074 2681.407959,3484.066162 
	C2640.994141,3487.999268 2600.545410,3491.772949 2560.034424,3494.452393 
	C2521.502441,3497.000732 2482.884521,3499.029785 2444.281250,3499.540039 
	C2382.346436,3500.359131 2320.376221,3500.627930 2258.451660,3499.471680 
	C2197.877197,3498.340332 2137.335938,3495.125000 2077.024658,3488.903809 
	C2022.736328,3483.304199 1968.359009,3478.319092 1914.246826,3471.317627 
	C1834.373291,3460.983398 1755.083862,3446.895508 1676.283325,3430.163574 
	C1665.873047,3427.953369 1655.449097,3425.808105 1643.312012,3421.731934 
	C1641.594238,3407.175049 1639.619629,3394.137451 1641.975830,3381.936035 
	C1648.532837,3347.982178 1656.888062,3314.375732 1665.787109,3279.982910 
	C1670.047241,3271.547363 1673.053223,3263.761230 1677.250977,3255.479004 
	C1679.292969,3252.812012 1680.143311,3250.640869 1681.104980,3248.566406 
	C1681.216064,3248.663330 1681.503052,3248.732666 1682.878662,3248.899414 
	C1694.676880,3240.805420 1705.247803,3232.724121 1715.497437,3224.253906 
	C1770.453247,3178.838623 1825.757690,3133.831299 1880.097778,3087.689209 
	C1924.484985,3049.998779 1962.947388,3006.680420 1995.804199,2958.497803 
	C2021.042358,2921.487305 2042.178101,2882.242188 2059.196533,2840.833740 
	C2062.913086,2831.790771 2067.957520,2824.766846 2076.523438,2819.839600 
	C2082.198486,2816.575195 2087.119629,2811.999512 2093.709717,2807.746826 
	C2109.760010,2797.508057 2124.964844,2788.462158 2141.709473,2782.187012 
	C2146.615723,2780.347900 2151.249512,2777.783447 2157.187256,2776.224121 
	C2169.689941,2789.971924 2181.015869,2803.045898 2192.336914,2816.123779 
	C2201.865967,2827.131348 2211.389648,2838.143311 2220.632812,2848.826660 
	C2229.590820,2848.488037 2236.093750,2844.865723 2242.632324,2841.921631 
	C2287.533691,2821.705078 2332.589111,2801.804443 2377.107422,2780.769775 
	C2458.375244,2742.371826 2538.271484,2701.267090 2616.442871,2656.855469 
	C2619.866211,2654.910156 2623.658203,2653.613525 2629.157959,2652.095703 
	C2660.458496,2653.316895 2689.039795,2646.345215 2717.850342,2642.358643 
	C2750.593262,2637.827881 2782.901855,2630.221436 2815.463867,2624.308350 
	C2871.047363,2614.214355 2925.365234,2599.074463 2979.076172,2581.988037 
	C3011.305420,2571.735352 3043.092041,2559.687012 3074.173340,2546.339600 
	C3106.522217,2532.447510 3138.163330,2516.628662 3166.094727,2494.674561 
	C3177.074951,2486.044189 3186.949951,2476.260742 3194.526855,2464.194580 
	C3207.232666,2443.960693 3202.833984,2426.743896 3190.938477,2413.041992 
	C3181.832520,2402.553223 3172.389893,2391.972656 3159.704102,2385.386963 
	C3143.206299,2376.822998 3127.104248,2367.213867 3109.924805,2360.312988 
	C3084.060303,2349.923584 3057.556152,2341.043213 3031.038818,2332.395508 
	C3015.317871,2327.268311 2999.049316,2323.820312 2982.978516,2317.765625 
	C2985.207031,2284.043945 2985.475830,2252.262451 2980.188965,2220.085449 
	C3015.615723,2207.799561 3049.708252,2196.564697 3083.522217,2184.545654 
	C3121.848877,2170.923340 3158.989990,2154.746094 3192.167236,2130.624268 
	C3232.778076,2101.098145 3261.024902,2062.704590 3275.958008,2014.641846 
	C3289.472168,1971.145752 3290.084473,1926.958984 3283.115479,1882.372559 
	C3272.307617,1813.225952 3255.124512,1745.693604 3232.552002,1678.553101 
	C3239.770996,1676.066040 3246.886963,1676.813721 3251.672119,1669.574951 
	C3248.712891,1643.122559 3244.102295,1616.380493 3237.939209,1589.934326 
	C3232.379883,1566.080322 3226.137207,1542.385742 3220.196045,1518.620728 
z"/>
<path fill="#FCDD2B" opacity="1.000000" stroke="none" 
	d="
M3219.462891,1517.462158 
	C3226.137207,1542.385742 3232.379883,1566.080322 3237.939209,1589.934326 
	C3244.102295,1616.380493 3248.712891,1643.122559 3251.672119,1669.574951 
	C3246.886963,1676.813721 3239.770996,1676.066040 3231.458984,1678.799316 
	C3228.737305,1680.504395 3228.031494,1680.748047 3226.523438,1681.210205 
	C3224.678955,1682.006592 3224.018555,1682.875000 3223.888672,1684.032227 
	C3224.038086,1684.030273 3224.049072,1683.731812 3222.434082,1683.721069 
	C3216.314453,1684.720947 3211.706543,1685.404785 3207.321045,1686.791626 
	C3152.372803,1704.167847 3097.448242,1721.618164 3042.552979,1739.160645 
	C3038.870605,1740.337402 3035.473633,1742.407593 3030.714111,1744.069946 
	C3027.464355,1745.319580 3025.444824,1746.561646 3021.845215,1747.853882 
	C3012.573486,1749.770386 3004.782227,1751.306152 2997.215332,1753.586670 
	C2987.689941,1756.457397 2978.449707,1760.289185 2968.897461,1763.052124 
	C2959.838135,1765.672363 2954.908203,1762.570435 2952.271973,1753.908691 
	C2938.767578,1709.538208 2925.165527,1665.197266 2911.729736,1620.806030 
	C2904.631348,1597.353638 2898.209961,1573.687744 2890.664062,1550.383423 
	C2887.287842,1539.956421 2885.517090,1528.645508 2877.579590,1517.304443 
	C2875.438721,1529.188599 2873.362061,1538.612183 2872.112305,1548.144043 
	C2870.223145,1562.555542 2869.124268,1577.069702 2867.297852,1591.490723 
	C2865.059814,1609.158691 2862.313721,1626.761841 2859.985840,1644.419189 
	C2858.258545,1657.520020 2857.083008,1670.695801 2855.235107,1683.777832 
	C2853.113770,1698.796021 2850.412109,1713.731445 2848.171387,1728.734009 
	C2846.610840,1739.181030 2845.281982,1749.666626 2844.063965,1760.159912 
	C2842.387695,1774.601685 2841.127197,1789.093994 2839.300293,1803.515381 
	C2837.062256,1821.182983 2834.319092,1838.786255 2831.991455,1856.443237 
	C2830.264160,1869.543823 2829.085205,1882.718872 2827.237061,1895.800781 
	C2825.115479,1910.818970 2822.378906,1925.749878 2820.187256,1940.759277 
	C2818.565674,1951.864014 2817.273193,1963.020752 2816.040039,1974.177002 
	C2814.369873,1989.285645 2813.998291,2004.642700 2810.953125,2019.458008 
	C2808.914795,2029.375732 2807.779053,2039.021362 2807.270020,2049.954590 
	C2774.878906,2065.331299 2743.437988,2079.735107 2712.014648,2094.177246 
	C2675.145020,2111.122314 2638.298584,2128.119141 2601.425049,2145.055420 
	C2587.525635,2151.439453 2573.586182,2157.736816 2559.649658,2164.040527 
	C2550.262939,2168.286377 2540.836670,2170.704590 2530.951172,2162.924805 
	C2514.384277,2128.045654 2498.298096,2094.462646 2482.042969,2060.961426 
	C2456.496826,2008.311768 2430.807617,1955.731567 2405.275879,1903.074951 
	C2402.974121,1898.328003 2401.376953,1893.239258 2399.690918,1886.423218 
	C2399.888428,1850.802979 2399.737061,1817.068115 2399.870850,1783.334595 
	C2399.913086,1772.686523 2399.118652,1762.230103 2397.249512,1750.798706 
	C2398.666748,1734.371704 2400.516113,1718.943848 2398.664307,1703.973877 
	C2397.441162,1694.087402 2396.125488,1684.291748 2396.114014,1674.345825 
	C2396.034180,1605.714355 2396.050537,1537.082642 2395.881592,1468.451538 
	C2395.872070,1464.614624 2397.794678,1460.086060 2393.116211,1456.619141 
	C2386.172607,1489.126587 2379.147705,1521.344727 2372.430176,1553.627075 
	C2363.262451,1597.684204 2354.322998,1641.788940 2345.298096,1685.875732 
	C2342.112061,1701.438232 2338.962402,1717.008179 2334.187500,1732.494507 
	C2314.917236,1727.579468 2297.274170,1722.677002 2279.586670,1717.939941 
	C2271.402344,1715.748047 2263.132080,1713.878662 2254.900635,1711.862915 
	C2250.109863,1709.676514 2245.318848,1707.489990 2239.853516,1704.995605 
	C2240.362305,1701.601318 2240.296387,1698.213135 2241.396729,1695.259399 
	C2276.957764,1599.793457 2312.466797,1504.307251 2348.395264,1408.979492 
	C2358.267578,1382.785522 2370.270752,1357.497070 2385.067871,1333.617798 
	C2397.843262,1313.000977 2413.417480,1295.006226 2433.140625,1280.706177 
	C2442.303467,1274.062744 2451.024170,1266.789917 2460.356445,1260.403076 
	C2489.405273,1240.523315 2522.199219,1233.328491 2558.563965,1234.324219 
	C2559.637695,1239.838867 2559.231934,1243.804199 2558.278076,1247.632935 
	C2552.835693,1269.477661 2546.328857,1291.110474 2542.091064,1313.181519 
	C2539.623291,1326.034424 2539.968018,1339.599365 2540.459473,1352.791382 
	C2540.823975,1362.587646 2548.099365,1367.933838 2557.802490,1368.315796 
	C2566.167725,1368.645142 2573.286621,1365.546021 2580.236084,1361.313721 
	C2602.498779,1347.755127 2621.742188,1330.372192 2640.480469,1312.583374 
	C2655.369873,1298.448364 2668.281006,1282.249756 2682.885498,1267.790405 
	C2710.304688,1240.643555 2733.673340,1209.945557 2759.613770,1181.511108 
	C2764.882080,1175.736450 2768.449219,1168.410034 2772.800537,1161.799072 
	C2788.727783,1160.891968 2804.666016,1159.136963 2820.579102,1159.340210 
	C2833.771973,1159.508911 2846.948975,1161.871338 2860.106445,1163.480103 
	C2868.683594,1164.528687 2877.176514,1166.342163 2885.769287,1167.175293 
	C2997.910645,1178.051270 3081.650391,1233.033203 3138.797607,1329.598022 
	C3161.929443,1368.684814 3178.933105,1410.572754 3195.396484,1452.693237 
	C3203.616455,1473.723877 3210.979248,1495.089478 3219.462891,1517.462158 
z"/>
<path fill="#E0E0E0" opacity="1.000000" stroke="none" 
	d="
M2399.452637,1888.309204 
	C2401.376953,1893.239258 2402.974121,1898.328003 2405.275879,1903.074951 
	C2430.807617,1955.731567 2456.496826,2008.311768 2482.042969,2060.961426 
	C2498.298096,2094.462646 2514.384277,2128.045654 2529.737549,2163.121338 
	C2527.832764,2166.099854 2525.513184,2167.977783 2525.845703,2168.926270 
	C2527.591064,2173.906006 2529.801270,2178.756104 2532.222168,2183.459961 
	C2553.856934,2225.492188 2575.504395,2267.517578 2597.290527,2309.471436 
	C2606.184814,2326.599121 2615.374756,2343.573975 2624.585449,2360.533936 
	C2625.661133,2362.514404 2627.728271,2363.956787 2629.335938,2365.648438 
	C2626.494141,2344.068359 2611.661377,2327.554199 2606.905273,2305.702148 
	C2611.484131,2303.808594 2615.424805,2301.139893 2619.638672,2300.599121 
	C2657.899414,2295.687988 2695.745117,2288.518799 2733.512695,2280.781250 
	C2745.186523,2278.389404 2757.143311,2277.379883 2768.411621,2277.017090 
	C2742.333496,2309.010742 2716.874268,2339.775146 2691.244141,2370.396484 
	C2686.131348,2376.505127 2680.763428,2382.513672 2674.829590,2387.800781 
	C2656.358643,2404.257324 2635.660889,2413.261963 2609.783936,2413.042236 
	C2506.622559,2412.166260 2403.449463,2412.660889 2300.280518,2412.722900 
	C2292.314697,2412.727539 2284.349609,2413.311035 2274.670410,2413.196289 
	C2264.962891,2412.825195 2256.968750,2412.883545 2247.042236,2412.839355 
	C2109.599121,2412.718506 1974.088501,2412.700439 1838.577881,2412.678711 
	C1833.263916,2412.677979 1827.945557,2412.492188 1822.637329,2412.656494 
	C1817.031616,2412.829834 1812.273438,2410.872314 1807.907959,2405.945312 
	C1807.895386,2398.553711 1807.895386,2392.796387 1807.895386,2387.657471 
	C1792.694824,2375.356689 1792.695557,2375.356201 1784.292969,2358.360352 
	C1781.390991,2352.490479 1778.854614,2346.392334 1775.411011,2340.859131 
	C1773.856689,2338.361084 1770.490967,2336.990234 1767.947021,2335.107910 
	C1766.870728,2329.319824 1765.919556,2323.504150 1764.647339,2317.759521 
	C1764.227173,2315.862305 1762.987793,2314.144531 1762.107422,2312.352051 
	C1722.802490,2232.317139 1683.434204,2152.313232 1644.212158,2072.237549 
	C1620.216797,2023.249023 1596.373291,1974.185913 1572.601074,1925.088623 
	C1558.111572,1895.163452 1543.867554,1865.119263 1529.565552,1835.103760 
	C1527.567383,1830.910278 1526.073730,1826.471313 1523.995850,1822.321655 
	C1516.861938,1808.076050 1520.846558,1795.197754 1528.686523,1782.811768 
	C1534.407349,1773.773438 1542.771118,1768.794434 1553.404541,1768.064941 
	C1559.372437,1767.655640 1565.387207,1767.898438 1571.380859,1767.898315 
	C1783.169189,1767.892700 1994.957520,1767.894653 2206.745850,1767.887085 
	C2215.403564,1767.886841 2224.061035,1767.806641 2236.451660,1767.614746 
	C2264.729736,1767.462280 2289.275635,1767.572632 2313.819824,1767.414551 
	C2329.306396,1767.314819 2340.275879,1774.655518 2348.096680,1787.414429 
	C2350.168945,1790.795166 2351.755371,1794.477295 2353.516357,1798.044922 
	C2365.551025,1822.426025 2377.500977,1846.849365 2389.650391,1871.173096 
	C2392.586426,1877.050781 2396.167969,1882.605835 2399.452637,1888.309204 
z"/>
<path fill="#FB8871" opacity="1.000000" stroke="none" 
	d="
M1664.533203,3280.632080 
	C1656.888062,3314.375732 1648.532837,3347.982178 1641.975830,3381.936035 
	C1639.619629,3394.137451 1641.594238,3407.175049 1641.780518,3421.617188 
	C1642.678833,3444.690186 1643.389160,3465.976807 1643.138916,3489.398438 
	C1638.497559,3494.250488 1634.172119,3496.407959 1631.245850,3499.779541 
	C1617.343750,3515.798096 1603.799805,3532.128174 1590.175171,3548.386230 
	C1581.658691,3558.548584 1573.203613,3568.762939 1564.758301,3578.984375 
	C1548.717896,3598.397949 1532.757935,3617.878662 1516.608398,3637.200684 
	C1514.697632,3639.486816 1511.809326,3640.955811 1508.707886,3643.309326 
	C1489.853638,3622.834961 1474.526245,3601.189941 1457.525024,3580.949707 
	C1440.543823,3560.733643 1423.996460,3540.256104 1407.571533,3519.232422 
	C1412.226807,3512.183350 1416.229614,3506.122559 1421.440186,3499.483887 
	C1431.789551,3494.407959 1438.535400,3487.617920 1444.580688,3479.294922 
	C1456.239380,3463.243652 1469.114014,3448.079590 1481.364258,3432.453369 
	C1495.656128,3414.222412 1509.947510,3395.987061 1523.906860,3377.503174 
	C1526.138672,3374.547852 1527.656006,3370.312012 1527.764893,3366.617188 
	C1528.389404,3345.439453 1534.093872,3324.618652 1532.141968,3303.273193 
	C1531.963135,3301.316895 1532.064697,3299.211182 1532.595093,3297.332764 
	C1538.780640,3275.428711 1534.943115,3252.555664 1539.426636,3230.325439 
	C1542.128418,3216.929199 1539.392822,3202.644287 1543.410156,3188.949707 
	C1545.348022,3182.343750 1543.771362,3175.605713 1536.190430,3170.266357 
	C1534.229492,3141.209229 1532.500488,3113.953125 1530.743164,3086.698730 
	C1527.443481,3035.525879 1523.254883,2984.391113 1521.095825,2933.170410 
	C1519.385254,2892.588867 1520.181152,2851.957520 1522.682861,2811.300293 
	C1525.264160,2769.350586 1529.370483,2727.665771 1536.228516,2686.251221 
	C1541.996826,2651.417969 1550.039551,2617.075928 1559.681396,2583.091064 
	C1562.913574,2571.698730 1568.433350,2562.158447 1578.109985,2555.439941 
	C1591.229126,2546.330811 1603.927734,2536.229736 1618.082153,2529.079102 
	C1647.333252,2514.300537 1673.968628,2495.531006 1702.653809,2477.318359 
	C1724.389526,2464.598389 1744.794922,2452.379639 1765.875000,2440.928223 
	C1767.206055,2443.608398 1767.862549,2445.521240 1768.344971,2449.159668 
	C1768.232910,2452.873047 1768.082764,2454.894287 1768.389160,2456.843750 
	C1772.175659,2480.939941 1776.244263,2504.994141 1779.801636,2529.123535 
	C1783.072876,2551.313232 1785.284302,2573.668213 1788.942139,2595.788574 
	C1792.282959,2615.991699 1795.830933,2636.124756 1795.939697,2657.688477 
	C1789.159424,2661.304932 1785.126099,2664.479004 1785.904785,2672.180420 
	C1787.240967,2685.395508 1787.947510,2698.712402 1788.135254,2711.997314 
	C1788.492310,2737.277100 1788.874146,2762.585693 1784.971069,2787.706543 
	C1784.462036,2790.982422 1784.207397,2794.354736 1784.356689,2797.658691 
	C1784.488281,2800.567139 1782.403809,2804.281250 1787.651611,2806.745117 
	C1790.207153,2804.326416 1792.986206,2801.738281 1795.719238,2799.102539 
	C1810.564819,2784.784424 1824.947632,2769.946533 1840.349976,2756.255127 
	C1860.232056,2738.581787 1880.988281,2721.894775 1901.256714,2704.652100 
	C1935.215088,2675.763428 1969.098389,2646.786377 2002.960449,2617.785156 
	C2004.935059,2616.093994 2006.438843,2613.853271 2008.039429,2611.875000 
	C2007.917114,2611.881836 2007.828735,2612.110352 2009.120605,2611.790039 
	C2011.162354,2610.996094 2011.912476,2610.522217 2013.883545,2610.329590 
	C2016.807861,2612.356689 2018.511230,2614.102295 2020.451050,2616.822266 
	C2021.691284,2618.626709 2022.694946,2619.456055 2023.798340,2620.120605 
	C2023.898071,2619.955322 2023.639526,2620.253662 2023.639160,2621.826904 
	C2024.140137,2626.680420 2024.079956,2630.174316 2025.234131,2633.206055 
	C2032.796875,2653.072754 2040.723633,2672.800049 2048.339355,2692.646729 
	C2063.086182,2731.075928 2077.706055,2769.553467 2092.378418,2808.010986 
	C2087.119629,2811.999512 2082.198486,2816.575195 2076.523438,2819.839600 
	C2067.957520,2824.766846 2062.913086,2831.790771 2059.196533,2840.833740 
	C2042.178101,2882.242188 2021.042358,2921.487305 1995.804199,2958.497803 
	C1962.947388,3006.680420 1924.484985,3049.998779 1880.097778,3087.689209 
	C1825.757690,3133.831299 1770.453247,3178.838623 1715.497437,3224.253906 
	C1705.247803,3232.724121 1694.676880,3240.805420 1682.401611,3247.248779 
	C1681.033691,3240.867188 1680.967651,3236.162842 1682.089111,3231.760986 
	C1691.251953,3195.796143 1700.573486,3159.871094 1709.969116,3123.966064 
	C1723.223633,3073.314453 1736.531250,3022.676270 1749.921143,2972.060303 
	C1755.514526,2950.916260 1761.499023,2929.875977 1767.077148,2908.728027 
	C1771.302490,2892.708496 1775.307983,2876.626709 1779.103760,2860.500488 
	C1780.255493,2855.607178 1781.366333,2850.272705 1776.535522,2845.750977 
	C1770.634155,2848.478760 1769.422974,2853.522949 1768.210815,2858.585205 
	C1763.890015,2876.629883 1759.941406,2894.774414 1755.153198,2912.694580 
	C1739.753906,2970.327393 1723.858154,3027.827637 1708.515381,3085.475342 
	C1697.948242,3125.179443 1688.057861,3165.063477 1677.713623,3204.827637 
	C1672.374878,3225.349854 1666.686646,3245.781006 1661.198975,3266.264648 
	C1659.768311,3271.604736 1659.155518,3276.834473 1664.533203,3280.632080 
z"/>
<path fill="#414ADF" opacity="1.000000" stroke="none" 
	d="
M1701.323486,2477.819824 
	C1673.968628,2495.531006 1647.333252,2514.300537 1618.082153,2529.079102 
	C1603.927734,2536.229736 1591.229126,2546.330811 1578.109985,2555.439941 
	C1568.433350,2562.158447 1562.913574,2571.698730 1559.681396,2583.091064 
	C1550.039551,2617.075928 1541.996826,2651.417969 1536.228516,2686.251221 
	C1529.370483,2727.665771 1525.264160,2769.350586 1522.682861,2811.300293 
	C1520.181152,2851.957520 1519.385254,2892.588867 1521.095825,2933.170410 
	C1523.254883,2984.391113 1527.443481,3035.525879 1530.743164,3086.698730 
	C1532.500488,3113.953125 1534.229492,3141.209229 1535.475342,3171.327881 
	C1533.924927,3177.394531 1532.870361,3180.597900 1530.718750,3184.582520 
	C1496.368408,3232.301758 1463.170776,3279.279053 1429.752563,3326.099121 
	C1427.188721,3329.691406 1423.069580,3332.173584 1419.673340,3335.171875 
	C1397.054321,3311.198242 1378.697632,3284.550293 1366.953125,3253.479004 
	C1360.077515,3235.288574 1355.588135,3216.533203 1352.751831,3197.451172 
	C1345.901489,3151.363037 1338.473633,3105.308838 1333.530518,3059.000732 
	C1325.458618,2983.382812 1322.867554,2907.450928 1328.940796,2831.530273 
	C1334.753540,2758.864258 1347.625854,2687.509277 1376.349854,2620.005615 
	C1435.232300,2481.627930 1538.440063,2393.305420 1682.533691,2352.588379 
	C1709.338623,2345.014404 1737.253662,2341.369385 1766.301758,2335.509521 
	C1770.490967,2336.990234 1773.856689,2338.361084 1775.411011,2340.859131 
	C1778.854614,2346.392334 1781.390991,2352.490479 1784.292969,2358.360352 
	C1792.695557,2375.356201 1792.694824,2375.356689 1807.895386,2387.657471 
	C1807.895386,2392.796387 1807.895386,2398.553711 1806.659424,2406.551758 
	C1791.755493,2416.548340 1778.087402,2424.303955 1762.747681,2432.013184 
	C1742.668701,2433.450195 1725.570068,2439.937012 1708.436646,2446.096680 
	C1704.277466,2447.591797 1700.395386,2450.477051 1697.044312,2453.462158 
	C1691.406372,2458.484375 1690.473999,2464.555420 1694.323975,2471.124756 
	C1695.894165,2473.803467 1698.945801,2475.614258 1701.323486,2477.819824 
z"/>
<path fill="#E33D3C" opacity="1.000000" stroke="none" 
	d="
M1420.232422,3500.061523 
	C1416.229614,3506.122559 1412.226807,3512.183350 1407.571533,3519.232422 
	C1423.996460,3540.256104 1440.543823,3560.733643 1457.525024,3580.949707 
	C1474.526245,3601.189941 1489.853638,3622.834961 1508.707886,3643.309326 
	C1511.809326,3640.955811 1514.697632,3639.486816 1516.608398,3637.200684 
	C1532.757935,3617.878662 1548.717896,3598.397949 1564.758301,3578.984375 
	C1573.203613,3568.762939 1581.658691,3558.548584 1590.175171,3548.386230 
	C1603.799805,3532.128174 1617.343750,3515.798096 1631.245850,3499.779541 
	C1634.172119,3496.407959 1638.497559,3494.250488 1643.605469,3491.122559 
	C1650.640503,3495.293945 1657.227783,3499.087646 1661.674072,3504.606445 
	C1675.336670,3521.564453 1674.202026,3545.321777 1659.307251,3561.329590 
	C1651.143921,3570.102783 1642.280762,3578.236572 1633.574951,3586.491455 
	C1572.126953,3644.759033 1511.771973,3704.129395 1455.134399,3767.115967 
	C1442.435669,3781.238281 1427.295044,3789.322021 1409.624268,3794.175293 
	C1385.911133,3800.688477 1362.354370,3800.770020 1338.662964,3793.727051 
	C1290.630737,3779.447754 1250.572266,3726.166992 1265.544800,3664.136230 
	C1271.228027,3640.591309 1281.093628,3618.844238 1293.804810,3598.300781 
	C1296.470215,3593.993164 1298.665039,3589.394287 1301.515259,3584.118408 
	C1292.390015,3582.042480 1285.351929,3584.352783 1278.367920,3586.117676 
	C1232.530029,3597.702637 1186.639648,3609.097168 1140.963257,3621.291504 
	C1127.561157,3624.869385 1114.827759,3624.645020 1101.589355,3621.541504 
	C1081.790405,3616.899902 1063.873047,3608.576660 1047.869019,3596.055908 
	C993.948059,3553.869873 994.881104,3473.856445 1038.021973,3433.519775 
	C1051.739502,3420.694092 1066.387695,3409.313232 1082.443359,3399.673340 
	C1120.738159,3376.681396 1173.798584,3359.149658 1229.976318,3357.831299 
	C1234.116577,3367.222900 1234.400757,3377.829590 1236.136597,3391.429932 
	C1237.965454,3407.829102 1239.564819,3420.932373 1241.322510,3434.013916 
	C1243.430664,3449.703125 1245.883789,3465.348877 1247.798584,3481.060791 
	C1249.635986,3496.138428 1250.655762,3511.320068 1252.698120,3526.365967 
	C1253.473633,3532.078857 1256.098999,3537.540771 1258.226929,3544.198730 
	C1264.147827,3542.661621 1269.221436,3541.608887 1274.125488,3540.030029 
	C1315.089478,3526.841553 1355.992676,3513.464600 1396.990601,3500.383057 
	C1404.517944,3497.981445 1412.390503,3496.660645 1420.104492,3496.146973 
	C1420.147705,3498.322266 1420.190063,3499.191895 1420.232422,3500.061523 
z"/>
<path fill="#414ADF" opacity="1.000000" stroke="none" 
	d="
M3511.477539,2888.883301 
	C3491.370117,2980.070801 3459.711426,3067.400391 3422.918945,3152.979004 
	C3408.486572,3186.547607 3393.582764,3219.920654 3378.427002,3253.170166 
	C3349.452393,3316.735107 3300.755127,3358.309814 3234.652100,3379.477051 
	C3212.542969,3386.556641 3189.759766,3391.531006 3165.485352,3395.893066 
	C3164.054199,3389.671387 3164.161133,3384.986328 3164.830322,3380.383057 
	C3171.239258,3336.280518 3177.774658,3292.196045 3184.210205,3248.097412 
	C3188.533203,3218.473389 3192.652588,3188.819336 3197.044922,3159.206055 
	C3203.095459,3118.412842 3209.392090,3077.656494 3215.446289,3036.863770 
	C3222.574951,2988.828125 3229.557617,2940.770264 3238.436035,2892.595459 
	C3262.215820,2892.423096 3284.168213,2892.659668 3306.110107,2892.276855 
	C3360.619629,2891.326416 3415.123291,2890.043213 3469.631592,2889.010010 
	C3483.576172,2888.745605 3497.528564,2888.913818 3511.477539,2888.883301 
z"/>
<path fill="#DB664F" opacity="1.000000" stroke="none" 
	d="
M2781.515381,2780.191650 
	C2779.652344,2774.070801 2782.543457,2769.455322 2787.230469,2766.549316 
	C2793.392822,2762.728516 2799.956299,2759.280518 2806.763184,2756.824219 
	C2828.730957,2748.897217 2851.561035,2744.175781 2874.515869,2740.235352 
	C2917.136475,2732.919434 2959.977051,2727.354492 3003.033691,2723.062500 
	C3051.372803,2718.243652 3099.712402,2713.785645 3148.230713,2711.285645 
	C3168.827881,2710.224365 3189.404785,2708.761719 3212.773926,2708.568848 
	C3215.847900,2712.691895 3216.138916,2715.728027 3216.385742,2718.304199 
	C3194.361084,2722.981201 3173.448975,2726.946777 3152.814453,2732.037598 
	C3144.567627,2734.072021 3136.539795,2737.903320 3129.127197,2742.161377 
	C3121.347656,2746.630127 3121.252686,2755.373779 3129.252686,2759.737549 
	C3138.488037,2764.774902 3148.446289,2769.063232 3158.601318,2771.737305 
	C3197.402100,2781.954834 3237.244141,2786.193359 3277.131836,2787.410889 
	C3325.700928,2788.893555 3374.378418,2788.766357 3422.953125,2787.379639 
	C3451.478516,2786.564941 3479.992188,2782.655762 3508.322266,2778.763672 
	C3524.052246,2776.602539 3539.509766,2772.025879 3554.854492,2767.701904 
	C3561.114502,2765.937744 3567.087646,2762.468750 3572.575439,2758.843018 
	C3578.121338,2755.179199 3578.359619,2747.044922 3572.773193,2743.598877 
	C3565.501953,2739.113770 3557.733643,2734.527588 3549.561035,2732.586670 
	C3528.232422,2727.521240 3506.567139,2723.872803 3484.835449,2718.300781 
	C3484.183105,2715.169922 3483.731689,2713.397949 3483.790039,2710.395996 
	C3485.744385,2705.918457 3487.188965,2702.670898 3488.633545,2699.423340 
	C3505.194092,2699.443115 3521.754395,2699.462646 3539.939453,2699.214355 
	C3547.542725,2699.226807 3553.518555,2699.614502 3559.500244,2699.770996 
	C3624.043945,2701.457275 3688.628418,2702.201172 3753.121094,2705.037354 
	C3810.935059,2707.580322 3868.699951,2712.028320 3925.964600,2720.906494 
	C3943.013184,2723.549805 3959.835205,2727.793213 3976.634277,2731.831543 
	C3983.038086,2733.371094 3989.242432,2736.052979 3995.253174,2738.829834 
	C4001.574463,2741.750488 4006.180908,2746.413818 4004.686279,2755.599121 
	C3989.091797,2767.062012 3973.065186,2771.740723 3956.961182,2775.599121 
	C3940.226074,2779.608154 3923.185303,2782.433350 3906.188721,2785.233887 
	C3882.672852,2789.108643 3859.104004,2792.695557 3835.498535,2795.979248 
	C3821.060303,2797.987793 3806.274658,2798.064697 3792.067139,2801.030518 
	C3771.138184,2805.399414 3749.836182,2805.049561 3728.786621,2807.251953 
	C3703.790771,2809.867432 3678.676514,2813.999268 3653.305664,2812.290771 
	C3651.993896,2812.202393 3650.564697,2812.241699 3649.344727,2812.666260 
	C3636.412842,2817.168457 3622.979980,2815.466064 3609.729492,2815.951172 
	C3599.750244,2816.316895 3589.477783,2815.187500 3579.864258,2817.221680 
	C3569.910400,2819.327637 3560.106689,2819.657715 3550.154297,2819.788086 
	C3534.831543,2819.988770 3519.501221,2819.831055 3504.186035,2820.254639 
	C3496.926514,2820.455566 3489.700195,2821.713379 3482.447998,2822.372559 
	C3476.502197,2822.913574 3470.540527,2823.657959 3464.585449,2823.662109 
	C3341.326172,2823.744141 3218.066895,2823.739014 3094.807617,2823.717041 
	C3090.152344,2823.716309 3085.201172,2824.332275 3080.898438,2823.005615 
	C3069.131836,2819.378418 3057.154053,2820.385986 3045.218506,2820.099121 
	C3031.902588,2819.779053 3018.293701,2821.160400 3005.349854,2818.823730 
	C2992.727539,2816.545410 2980.252686,2816.419678 2967.664062,2815.916260 
	C2961.676514,2815.676758 2955.635742,2815.942871 2949.705811,2815.243408 
	C2931.298584,2813.072510 2912.993652,2809.551514 2894.534912,2808.427979 
	C2873.881348,2807.170898 2853.789307,2802.887207 2833.609863,2799.255127 
	C2815.325684,2795.964355 2797.278076,2790.906006 2781.515381,2780.191650 
z"/>
<path fill="#BC2B1B" opacity="1.000000" stroke="none" 
	d="
M2781.197021,2782.026855 
	C2797.278076,2790.906006 2815.325684,2795.964355 2833.609863,2799.255127 
	C2853.789307,2802.887207 2873.881348,2807.170898 2894.534912,2808.427979 
	C2912.993652,2809.551514 2931.298584,2813.072510 2949.705811,2815.243408 
	C2955.635742,2815.942871 2961.676514,2815.676758 2967.664062,2815.916260 
	C2980.252686,2816.419678 2992.727539,2816.545410 3005.349854,2818.823730 
	C3018.293701,2821.160400 3031.902588,2819.779053 3045.218506,2820.099121 
	C3057.154053,2820.385986 3069.131836,2819.378418 3080.898438,2823.005615 
	C3085.201172,2824.332275 3090.152344,2823.716309 3094.807617,2823.717041 
	C3218.066895,2823.739014 3341.326172,2823.744141 3464.585449,2823.662109 
	C3470.540527,2823.657959 3476.502197,2822.913574 3482.447998,2822.372559 
	C3489.700195,2821.713379 3496.926514,2820.455566 3504.186035,2820.254639 
	C3519.501221,2819.831055 3534.831543,2819.988770 3550.154297,2819.788086 
	C3560.106689,2819.657715 3569.910400,2819.327637 3579.864258,2817.221680 
	C3589.477783,2815.187500 3599.750244,2816.316895 3609.729492,2815.951172 
	C3622.979980,2815.466064 3636.412842,2817.168457 3649.344727,2812.666260 
	C3650.564697,2812.241699 3651.993896,2812.202393 3653.305664,2812.290771 
	C3678.676514,2813.999268 3703.790771,2809.867432 3728.786621,2807.251953 
	C3749.836182,2805.049561 3771.138184,2805.399414 3792.067139,2801.030518 
	C3806.274658,2798.064697 3821.060303,2797.987793 3835.498535,2795.979248 
	C3859.104004,2792.695557 3882.672852,2789.108643 3906.188721,2785.233887 
	C3923.185303,2782.433350 3940.226074,2779.608154 3956.961182,2775.599121 
	C3973.065186,2771.740723 3989.091797,2767.062012 4004.107422,2756.903564 
	C4006.038330,2775.214600 4006.657715,2793.806641 4007.530029,2812.386963 
	C4007.850586,2819.217041 4004.828369,2824.173828 3999.215088,2827.115967 
	C3992.189209,2830.798340 3984.897949,2834.167969 3977.395508,2836.712402 
	C3948.946289,2846.360596 3919.441406,2851.561035 3889.839355,2855.888672 
	C3854.976562,2860.985596 3819.981201,2865.174072 3781.908691,2870.767090 
	C3760.492432,2871.479492 3742.249512,2871.677979 3724.335449,2876.057861 
	C3693.943359,2877.914551 3663.549561,2879.742432 3633.160156,2881.644043 
	C3623.246338,2882.264404 3613.344727,2883.077148 3599.818115,2883.976318 
	C3578.254150,2883.741211 3560.350830,2883.875732 3542.761963,2888.181641 
	C3533.485596,2888.137207 3524.208984,2888.093018 3513.205078,2888.466064 
	C3497.528564,2888.913818 3483.576172,2888.745605 3469.631592,2889.010010 
	C3415.123291,2890.043213 3360.619629,2891.326416 3306.110107,2892.276855 
	C3284.168213,2892.659668 3262.215820,2892.423096 3236.549316,2892.367188 
	C3214.220215,2892.172852 3195.610107,2892.080322 3175.065186,2891.946289 
	C3150.791016,2891.371582 3128.449951,2890.897461 3106.112793,2890.285156 
	C3088.389893,2889.799561 3070.671387,2889.144775 3051.086426,2888.326904 
	C3038.844727,2887.578857 3028.457520,2887.211914 3018.092529,2886.514648 
	C3009.712646,2885.950928 3001.359375,2884.989502 2992.994385,2884.204590 
	C2936.487793,2880.977539 2880.165527,2876.115723 2824.764160,2863.884277 
	C2815.063232,2861.742432 2805.552002,2858.485352 2796.208252,2855.049561 
	C2786.610840,2851.520752 2781.271240,2844.806152 2781.430908,2833.793701 
	C2781.672607,2817.156250 2781.103271,2800.506592 2781.197021,2782.026855 
z"/>
<path fill="#414ADF" opacity="1.000000" stroke="none" 
	d="
M3052.950928,2888.565186 
	C3070.671387,2889.144775 3088.389893,2889.799561 3106.112793,2890.285156 
	C3128.449951,2890.897461 3150.791016,2891.371582 3175.160645,2893.734619 
	C3175.461670,2910.066406 3173.953857,2924.599121 3171.957031,2939.064697 
	C3167.599365,2970.633545 3163.057373,3002.177002 3158.470459,3033.713379 
	C3153.692627,3066.561035 3148.755371,3099.385010 3143.922119,3132.224365 
	C3139.185059,3164.408691 3134.481689,3196.597900 3129.780273,3228.787354 
	C3125.174805,3260.321533 3120.695312,3291.874756 3115.967041,3323.390381 
	C3111.440674,3353.562012 3106.666504,3383.696289 3102.000977,3413.847168 
	C3042.213867,3426.197510 2982.427002,3438.547852 2921.019043,3449.377930 
	C2923.951416,3427.738037 2928.275391,3407.563477 2933.094971,3387.508057 
	C2965.439453,3252.906738 2997.904541,3118.334229 3030.291748,2983.743164 
	C3037.921631,2952.035645 3045.401855,2920.292236 3052.950928,2888.565186 
z"/>
<path fill="#040311" opacity="1.000000" stroke="none" 
	d="
M2356.321289,897.196777 
	C2331.577148,892.688354 2307.724365,885.462585 2283.871338,873.430054 
	C2286.365234,870.191895 2288.190918,866.939331 2290.812012,864.564697 
	C2304.498291,852.166504 2318.386719,839.991333 2333.748047,825.953247 
	C2335.958496,820.540833 2335.162354,820.160522 2330.035156,821.657349 
	C2322.765625,822.090210 2315.500488,822.618591 2308.225586,822.929871 
	C2300.427979,823.263672 2292.601807,824.901550 2283.394043,823.025635 
	C2286.148926,811.804016 2291.840820,803.071411 2298.467041,794.851929 
	C2305.229004,786.463745 2313.172119,779.328430 2323.086914,774.950500 
	C2332.587646,770.755432 2342.385498,767.233643 2354.228271,762.556885 
	C2339.764893,754.559937 2325.593994,757.194336 2312.498047,754.321533 
	C2324.746582,725.604980 2356.312744,707.725769 2411.663574,698.094849 
	C2396.388916,688.509094 2379.200684,686.884827 2364.742920,677.804199 
	C2379.126709,669.945190 2394.371582,667.298889 2409.352783,665.147156 
	C2492.144043,653.256226 2563.349121,677.543640 2621.959229,736.835327 
	C2655.184814,770.447632 2671.027344,812.163574 2672.271973,859.361633 
	C2672.711182,876.019226 2671.833008,892.547058 2668.572021,909.009094 
	C2664.673584,928.690002 2658.707275,947.449341 2646.845215,966.305786 
	C2644.958984,969.271362 2644.239990,970.470398 2642.407227,971.959778 
	C2636.907471,975.896545 2632.807617,973.718628 2628.384277,970.148132 
	C2626.425293,964.075317 2628.884277,961.275574 2632.099609,958.458618 
	C2641.829590,949.933960 2644.841553,938.570251 2645.207764,926.181641 
	C2645.759277,907.516113 2640.402588,890.717285 2629.014893,875.940552 
	C2622.806152,867.884155 2615.087158,861.804260 2605.270996,858.439209 
	C2593.813232,854.511536 2583.880615,857.345032 2576.407471,866.113281 
	C2572.279297,870.956726 2569.838867,877.506958 2567.640381,883.646729 
	C2565.667725,889.155518 2565.067871,895.155640 2563.769287,901.385193 
	C2557.441650,902.802185 2551.596924,903.814270 2545.925781,905.434021 
	C2525.247559,911.340393 2506.576172,907.209167 2489.107178,895.129395 
	C2481.467285,889.846313 2473.343994,885.232849 2465.265137,880.621460 
	C2454.830322,874.665161 2443.569336,874.144287 2432.438477,877.761841 
	C2424.263672,880.418640 2416.315186,884.029358 2408.666260,887.987976 
	C2396.543945,894.261658 2383.852295,897.308472 2370.255371,897.001282 
	C2365.614502,896.896423 2360.966309,897.122070 2356.321289,897.196777 
z"/>
<path fill="#661728" opacity="1.000000" stroke="none" 
	d="
M3542.940918,2889.916992 
	C3560.350830,2883.875732 3578.254150,2883.741211 3598.014893,2884.197998 
	C3604.463867,2909.762939 3608.892578,2935.319580 3613.766602,2960.791260 
	C3629.148682,3041.174072 3644.710693,3121.522705 3660.178955,3201.888916 
	C3676.653564,3287.483398 3693.068604,3373.089111 3709.567383,3458.678955 
	C3726.317383,3545.573242 3743.136475,3632.454346 3759.928711,3719.340576 
	C3764.726318,3744.163574 3769.560547,3768.979492 3774.320557,3793.809570 
	C3775.197021,3798.381836 3775.863770,3802.997559 3776.508301,3807.610107 
	C3778.520752,3822.017334 3768.985352,3832.037842 3756.205322,3835.439453 
	C3742.201416,3839.166992 3728.135254,3832.875244 3722.651123,3820.516602 
	C3721.062988,3816.937988 3720.399658,3812.899414 3719.644531,3809.007568 
	C3703.808838,3727.356934 3687.969482,3645.707275 3672.237061,3564.036621 
	C3656.881836,3484.325439 3641.692139,3404.582520 3626.343262,3324.870117 
	C3610.994873,3245.158936 3595.538330,3165.468506 3580.130371,3085.768799 
	C3568.511719,3025.668701 3556.884521,2965.570068 3545.298828,2905.463623 
	C3544.416992,2900.889648 3543.839111,2896.257324 3542.940918,2889.916992 
z"/>
<path fill="#661728" opacity="1.000000" stroke="none" 
	d="
M3102.105469,3415.749268 
	C3106.666504,3383.696289 3111.440674,3353.562012 3115.967041,3323.390381 
	C3120.695312,3291.874756 3125.174805,3260.321533 3129.780273,3228.787354 
	C3134.481689,3196.597900 3139.185059,3164.408691 3143.922119,3132.224365 
	C3148.755371,3099.385010 3153.692627,3066.561035 3158.470459,3033.713379 
	C3163.057373,3002.177002 3167.599365,2970.633545 3171.957031,2939.064697 
	C3173.953857,2924.599121 3175.461670,2910.066406 3177.095703,2893.775879 
	C3195.610107,2892.080322 3214.220215,2892.172852 3234.717041,2892.493896 
	C3229.557617,2940.770264 3222.574951,2988.828125 3215.446289,3036.863770 
	C3209.392090,3077.656494 3203.095459,3118.412842 3197.044922,3159.206055 
	C3192.652588,3188.819336 3188.533203,3218.473389 3184.210205,3248.097412 
	C3177.774658,3292.196045 3171.239258,3336.280518 3164.830322,3380.383057 
	C3164.161133,3384.986328 3164.054199,3389.671387 3163.834473,3396.206543 
	C3162.940186,3401.231934 3161.397949,3404.296387 3160.929443,3407.517334 
	C3152.403320,3466.164551 3144.099121,3524.843994 3135.555176,3583.488281 
	C3126.915771,3642.791260 3118.046875,3702.060791 3109.319092,3761.350830 
	C3106.215332,3782.434570 3102.575439,3803.468506 3100.403076,3824.650635 
	C3098.764160,3840.631348 3081.759277,3855.112305 3059.452881,3846.191162 
	C3046.690918,3841.087402 3042.574463,3830.657715 3043.791748,3820.965332 
	C3045.284912,3809.074463 3046.805664,3797.184082 3048.550781,3785.328125 
	C3058.636230,3716.814697 3068.877686,3648.324219 3078.895264,3579.801025 
	C3086.794434,3525.770020 3094.447266,3471.702637 3102.105469,3415.749268 
z"/>
<path fill="#FB8871" opacity="1.000000" stroke="none" 
	d="
M2356.440674,898.644653 
	C2360.966309,897.122070 2365.614502,896.896423 2370.255371,897.001282 
	C2383.852295,897.308472 2396.543945,894.261658 2408.666260,887.987976 
	C2416.315186,884.029358 2424.263672,880.418640 2432.438477,877.761841 
	C2443.569336,874.144287 2454.830322,874.665161 2465.265137,880.621460 
	C2473.343994,885.232849 2481.467285,889.846313 2489.107178,895.129395 
	C2506.576172,907.209167 2525.247559,911.340393 2545.925781,905.434021 
	C2551.596924,903.814270 2557.441650,902.802185 2563.769287,901.385193 
	C2565.067871,895.155640 2565.667725,889.155518 2567.640381,883.646729 
	C2569.838867,877.506958 2572.279297,870.956726 2576.407471,866.113281 
	C2583.880615,857.345032 2593.813232,854.511536 2605.270996,858.439209 
	C2615.087158,861.804260 2622.806152,867.884155 2629.014893,875.940552 
	C2640.402588,890.717285 2645.759277,907.516113 2645.207764,926.181641 
	C2644.841553,938.570251 2641.829590,949.933960 2632.099609,958.458618 
	C2628.884277,961.275574 2626.425293,964.075317 2628.213623,971.826416 
	C2632.499756,992.513611 2634.007080,1010.151794 2630.034668,1027.900635 
	C2624.258789,1053.707886 2612.192627,1075.767090 2592.612061,1094.045654 
	C2574.576660,1110.881592 2554.109863,1121.432739 2529.573486,1124.354980 
	C2525.949463,1124.786743 2522.568359,1127.255615 2519.074707,1128.781982 
	C2509.909912,1127.392700 2500.691650,1126.286621 2491.589111,1124.567261 
	C2442.888184,1115.367676 2409.965332,1087.654785 2395.498291,1039.991943 
	C2385.484863,1007.002441 2377.198486,973.490112 2368.043457,940.238159 
	C2364.348877,926.819580 2360.395508,913.472229 2356.440674,898.644653 
M2456.152832,1061.797119 
	C2452.312256,1065.082764 2446.364990,1066.368042 2445.400635,1074.478760 
	C2449.772705,1078.801025 2454.380127,1084.424194 2460.010986,1088.699585 
	C2471.612549,1097.508301 2484.217773,1098.240601 2497.209961,1091.340698 
	C2511.649902,1083.671753 2519.762207,1071.117310 2523.352783,1055.793701 
	C2524.725098,1049.937500 2528.027344,1043.255859 2523.546387,1037.151001 
	C2499.027100,1039.567261 2485.070801,1044.530029 2456.152832,1061.797119 
z"/>
<path fill="#661728" opacity="1.000000" stroke="none" 
	d="
M3724.669922,2877.551270 
	C3742.249512,2871.677979 3760.492432,2871.479492 3780.496338,2871.767578 
	C3856.645020,3133.658203 3931.072754,3395.558838 4005.493164,3657.461426 
	C4006.948975,3662.585205 4008.243652,3667.755371 4009.746582,3672.864502 
	C4012.013428,3680.571045 4009.939453,3687.545410 4005.475342,3693.630615 
	C3997.991699,3703.831543 3987.107422,3706.415771 3975.247070,3704.983154 
	C3964.969971,3703.741211 3958.449951,3697.331055 3955.391602,3687.627197 
	C3951.791016,3676.201660 3948.421143,3664.699951 3945.144043,3653.176758 
	C3873.033936,3399.614258 3800.951416,3146.044189 3728.861328,2892.476074 
	C3727.587646,2887.995361 3726.290527,2883.521484 3724.669922,2877.551270 
z"/>
<path fill="#661728" opacity="1.000000" stroke="none" 
	d="
M3051.086426,2888.326904 
	C3045.401855,2920.292236 3037.921631,2952.035645 3030.291748,2983.743164 
	C2997.904541,3118.334229 2965.439453,3252.906738 2933.094971,3387.508057 
	C2928.275391,3407.563477 2923.951416,3427.738037 2919.416260,3449.441895 
	C2914.481201,3469.552246 2909.144775,3487.985840 2904.644775,3506.621582 
	C2889.377930,3569.848389 2874.412109,3633.148193 2859.310791,3696.415039 
	C2858.232178,3700.934326 2857.215820,3705.488770 2855.778809,3709.898926 
	C2850.651367,3725.636475 2838.187744,3732.080811 2821.166016,3727.982178 
	C2806.189697,3724.375977 2797.655273,3712.061768 2800.757080,3696.577148 
	C2804.274414,3679.017334 2808.889404,3661.676514 2813.074219,3644.251953 
	C2827.333496,3584.881348 2841.613281,3525.515625 2855.843262,3464.484375 
	C2862.568604,3435.785889 2869.515381,3408.794922 2876.068848,3381.708984 
	C2896.835449,3295.874512 2917.500977,3210.015869 2938.117432,3124.145264 
	C2955.633545,3051.187988 2973.057617,2978.208496 2990.419434,2905.214355 
	C2991.795654,2899.428223 2992.365967,2893.450195 2993.152832,2885.883057 
	C3001.359375,2884.989502 3009.712646,2885.950928 3018.092529,2886.514648 
	C3028.457520,2887.211914 3038.844727,2887.578857 3051.086426,2888.326904 
z"/>
<path fill="#FB8871" opacity="1.000000" stroke="none" 
	d="
M1420.103760,3494.841064 
	C1412.390503,3496.660645 1404.517944,3497.981445 1396.990601,3500.383057 
	C1355.992676,3513.464600 1315.089478,3526.841553 1274.125488,3540.030029 
	C1269.221436,3541.608887 1264.147827,3542.661621 1258.226929,3544.198730 
	C1256.098999,3537.540771 1253.473633,3532.078857 1252.698120,3526.365967 
	C1250.655762,3511.320068 1249.635986,3496.138428 1247.798584,3481.060791 
	C1245.883789,3465.348877 1243.430664,3449.703125 1241.322510,3434.013916 
	C1239.564819,3420.932373 1237.965454,3407.829102 1236.419922,3393.032471 
	C1246.804321,3388.672607 1257.167969,3386.357666 1267.307617,3383.300537 
	C1315.020020,3368.915283 1362.675415,3354.341064 1410.330933,3339.768555 
	C1412.835083,3339.002930 1415.154297,3337.633057 1418.616455,3335.857910 
	C1423.069580,3332.173584 1427.188721,3329.691406 1429.752563,3326.099121 
	C1463.170776,3279.279053 1496.368408,3232.301758 1530.757080,3186.373535 
	C1531.830200,3193.352783 1533.191284,3199.777588 1531.453979,3205.212158 
	C1524.670654,3226.431885 1528.921631,3248.537598 1524.951172,3270.199463 
	C1520.343506,3295.339111 1521.384521,3321.512451 1519.943848,3347.235596 
	C1519.224365,3360.081055 1515.767090,3371.978271 1507.619995,3382.219482 
	C1486.232178,3409.106201 1464.735840,3435.907471 1443.523071,3462.931396 
	C1435.381104,3473.304443 1427.891113,3484.189453 1420.103760,3494.841064 
z"/>
<path fill="#FB8871" opacity="1.000000" stroke="none" 
	d="
M2643.521240,971.669434 
	C2644.239990,970.470398 2644.958984,969.271362 2646.691895,967.722412 
	C2658.245850,985.737915 2669.621582,1003.682678 2679.131592,1022.567200 
	C2693.503418,1051.105591 2709.035400,1078.881836 2728.199219,1104.442505 
	C2742.127930,1123.020142 2756.967041,1140.915161 2772.100342,1160.456787 
	C2768.449219,1168.410034 2764.882080,1175.736450 2759.613770,1181.511108 
	C2733.673340,1209.945557 2710.304688,1240.643555 2682.885498,1267.790405 
	C2668.281006,1282.249756 2655.369873,1298.448364 2640.480469,1312.583374 
	C2621.742188,1330.372192 2602.498779,1347.755127 2580.236084,1361.313721 
	C2573.286621,1365.546021 2566.167725,1368.645142 2557.802490,1368.315796 
	C2548.099365,1367.933838 2540.823975,1362.587646 2540.459473,1352.791382 
	C2539.968018,1339.599365 2539.623291,1326.034424 2542.091064,1313.181519 
	C2546.328857,1291.110474 2552.835693,1269.477661 2558.278076,1247.632935 
	C2559.231934,1243.804199 2559.637695,1239.838867 2560.310059,1234.350708 
	C2556.004150,1220.516113 2551.684326,1208.267456 2548.464844,1193.835693 
	C2568.490234,1180.915161 2582.239990,1164.649292 2595.857178,1148.256714 
	C2610.500244,1130.629272 2619.875244,1109.923340 2628.809082,1089.203857 
	C2636.965576,1070.287720 2642.509521,1050.207031 2643.665283,1029.576050 
	C2644.743164,1010.336914 2643.655518,990.976501 2643.521240,971.669434 
z"/>
<path fill="#FB8871" opacity="1.000000" stroke="none" 
	d="
M2399.690918,1886.423218 
	C2396.167969,1882.605835 2392.586426,1877.050781 2389.650391,1871.173096 
	C2377.500977,1846.849365 2365.551025,1822.426025 2353.516357,1798.044922 
	C2351.755371,1794.477295 2350.168945,1790.795166 2348.096680,1787.414429 
	C2340.275879,1774.655518 2329.306396,1767.314819 2313.819824,1767.414551 
	C2289.275635,1767.572632 2264.729736,1767.462280 2238.359619,1767.590088 
	C2237.488770,1763.236450 2238.000977,1758.606445 2239.479004,1754.308472 
	C2244.021484,1741.099609 2248.933838,1728.017944 2254.301758,1713.375000 
	C2263.132080,1713.878662 2271.402344,1715.748047 2279.586670,1717.939941 
	C2297.274170,1722.677002 2314.917236,1727.579468 2335.226807,1733.474731 
	C2357.286377,1740.354248 2376.697998,1746.173340 2396.109375,1751.992432 
	C2399.118652,1762.230103 2399.913086,1772.686523 2399.870850,1783.334595 
	C2399.737061,1817.068115 2399.888428,1850.802979 2399.690918,1886.423218 
z"/>
<path fill="#F84C34" opacity="1.000000" stroke="none" 
	d="
M2642.407227,971.959839 
	C2643.655518,990.976501 2644.743164,1010.336914 2643.665283,1029.576050 
	C2642.509521,1050.207031 2636.965576,1070.287720 2628.809082,1089.203857 
	C2619.875244,1109.923340 2610.500244,1130.629272 2595.857178,1148.256714 
	C2582.239990,1164.649292 2568.490234,1180.915161 2548.299316,1192.375854 
	C2537.924805,1172.614136 2528.816162,1152.129028 2519.391113,1130.212891 
	C2522.568359,1127.255615 2525.949463,1124.786743 2529.573486,1124.354980 
	C2554.109863,1121.432739 2574.576660,1110.881592 2592.612061,1094.045654 
	C2612.192627,1075.767090 2624.258789,1053.707886 2630.034668,1027.900635 
	C2634.007080,1010.151794 2632.499756,992.513611 2628.532715,973.310791 
	C2632.807617,973.718628 2636.907471,975.896545 2642.407227,971.959839 
z"/>
<path fill="#631224" opacity="1.000000" stroke="none" 
	d="
M1764.419189,2432.059570 
	C1778.087402,2424.303955 1791.755493,2416.548340 1806.672119,2408.186035 
	C1812.273438,2410.872314 1817.031616,2412.829834 1822.637329,2412.656494 
	C1827.945557,2412.492188 1833.263916,2412.677979 1838.577881,2412.678711 
	C1974.088501,2412.700439 2109.599121,2412.718506 2246.650391,2414.197021 
	C2245.375244,2422.478516 2238.555908,2424.550049 2233.001465,2427.707275 
	C2167.709473,2464.820557 2102.272217,2501.678467 2036.887329,2538.628906 
	C2031.681763,2541.570557 2026.518799,2544.598877 2021.449097,2547.767578 
	C2015.058472,2551.761475 2012.333252,2555.872559 2014.618164,2557.783936 
	C2019.339111,2561.732666 2023.306885,2557.980713 2027.271851,2555.998047 
	C2033.217529,2553.025146 2039.090454,2549.892090 2044.879272,2546.623047 
	C2063.397217,2536.166260 2081.847168,2525.589111 2100.351074,2515.107422 
	C2143.723877,2490.539062 2187.181641,2466.119385 2230.458496,2441.383057 
	C2245.983643,2432.509277 2261.087891,2422.899658 2276.384033,2413.625977 
	C2284.349609,2413.311035 2292.314697,2412.727539 2300.280518,2412.722900 
	C2403.449463,2412.660889 2506.622559,2412.166260 2609.783936,2413.042236 
	C2635.660889,2413.261963 2656.358643,2404.257324 2674.829590,2387.800781 
	C2680.763428,2382.513672 2686.131348,2376.505127 2691.244141,2370.396484 
	C2716.874268,2339.775146 2742.333496,2309.010742 2769.767090,2276.526367 
	C2774.757080,2273.670410 2777.766602,2272.316895 2780.918213,2271.539307 
	C2823.929199,2260.926514 2867.017822,2250.621826 2909.962891,2239.750000 
	C2933.008789,2233.915527 2955.816406,2227.140869 2978.731689,2220.790527 
	C2985.475830,2252.262451 2985.207031,2284.043945 2982.138916,2319.017578 
	C2977.109131,2349.966309 2969.695068,2376.676025 2952.446777,2399.614014 
	C2944.479004,2410.210693 2936.471924,2420.865479 2927.541016,2430.633057 
	C2904.204102,2456.155273 2878.888916,2479.662598 2851.726562,2501.072021 
	C2799.528076,2542.214600 2744.702148,2579.584717 2688.001709,2614.239258 
	C2667.662109,2626.669922 2647.514160,2639.414062 2627.278564,2652.015137 
	C2623.658203,2653.613525 2619.866211,2654.910156 2616.442871,2656.855469 
	C2538.271484,2701.267090 2458.375244,2742.371826 2377.107422,2780.769775 
	C2332.589111,2801.804443 2287.533691,2821.705078 2242.632324,2841.921631 
	C2236.093750,2844.865723 2229.590820,2848.488037 2220.632812,2848.826660 
	C2211.389648,2838.143311 2201.865967,2827.131348 2192.336914,2816.123779 
	C2181.015869,2803.045898 2169.689941,2789.971924 2156.667480,2775.009033 
	C2142.776367,2758.393066 2130.688232,2743.576904 2118.367920,2728.956055 
	C2098.387939,2705.244873 2078.415771,2681.523438 2058.124512,2658.079590 
	C2046.962280,2645.182861 2035.155640,2632.843994 2023.639526,2620.253662 
	C2023.639526,2620.253662 2023.898071,2619.955322 2023.582397,2619.136230 
	C2022.249390,2617.493896 2021.232056,2616.670898 2020.214600,2615.847656 
	C2018.511230,2614.102295 2016.807861,2612.356689 2013.087036,2609.971680 
	C2009.989380,2610.258545 2008.909058,2611.184570 2007.828735,2612.110352 
	C2007.828735,2612.110352 2007.917114,2611.881836 2006.555542,2611.755859 
	C2001.008911,2613.541992 1996.659790,2615.162598 1992.664429,2617.411377 
	C1959.747192,2635.938232 1926.921753,2654.628174 1893.998901,2673.145020 
	C1888.370361,2676.310547 1882.410889,2678.887695 1876.296509,2681.887695 
	C1870.081299,2675.741455 1868.220703,2668.548096 1864.991943,2662.203857 
	C1860.514648,2653.406494 1856.191284,2644.530762 1851.655518,2634.241699 
	C1848.255981,2624.802490 1845.194580,2616.726318 1841.718506,2608.832275 
	C1821.901733,2563.828613 1802.071533,2518.830322 1782.032959,2473.925293 
	C1777.998779,2464.885010 1773.047485,2456.253906 1768.519043,2447.434082 
	C1767.862549,2445.521240 1767.206055,2443.608398 1765.698120,2439.583008 
	C1764.704224,2435.666748 1764.561768,2433.863281 1764.419189,2432.059570 
z"/>
<path fill="#FB8871" opacity="1.000000" stroke="none" 
	d="
M2980.188965,2220.085449 
	C2955.816406,2227.140869 2933.008789,2233.915527 2909.962891,2239.750000 
	C2867.017822,2250.621826 2823.929199,2260.926514 2780.918213,2271.539307 
	C2777.766602,2272.316895 2774.757080,2273.670410 2770.326172,2275.247070 
	C2757.143311,2277.379883 2745.186523,2278.389404 2733.512695,2280.781250 
	C2695.745117,2288.518799 2657.899414,2295.687988 2619.638672,2300.599121 
	C2615.424805,2301.139893 2611.484131,2303.808594 2606.905273,2305.702148 
	C2611.661377,2327.554199 2626.494141,2344.068359 2629.335938,2365.648438 
	C2627.728271,2363.956787 2625.661133,2362.514404 2624.585449,2360.533936 
	C2615.374756,2343.573975 2606.184814,2326.599121 2597.290527,2309.471436 
	C2575.504395,2267.517578 2553.856934,2225.492188 2532.222168,2183.459961 
	C2529.801270,2178.756104 2527.591064,2173.906006 2525.845703,2168.926270 
	C2525.513184,2167.977783 2527.832764,2166.099854 2530.142578,2164.454102 
	C2540.836670,2170.704590 2550.262939,2168.286377 2559.649658,2164.040527 
	C2573.586182,2157.736816 2587.525635,2151.439453 2601.425049,2145.055420 
	C2638.298584,2128.119141 2675.145020,2111.122314 2712.014648,2094.177246 
	C2743.437988,2079.735107 2774.878906,2065.331299 2808.749023,2049.678711 
	C2814.324463,2047.432495 2817.601807,2046.721924 2820.580322,2045.358643 
	C2857.926758,2028.262817 2895.188965,2010.982178 2932.561035,1993.942505 
	C2953.044922,1984.603027 2973.908691,1976.074585 2994.199707,1966.343140 
	C3009.052002,1959.220093 3025.052490,1954.129028 3039.335449,1943.382568 
	C3044.929932,1942.076294 3049.285400,1940.971924 3053.375244,1939.239868 
	C3068.814941,1932.701172 3084.168701,1925.958496 3101.182617,1919.487549 
	C3105.461914,1919.621094 3108.288574,1920.141968 3110.737549,1919.406372 
	C3132.312500,1912.924805 3153.823242,1906.227783 3175.342529,1899.561401 
	C3176.596680,1899.172729 3178.253906,1898.822021 3178.868164,1897.890137 
	C3180.196045,1895.874634 3180.967773,1893.492920 3181.967285,1891.261108 
	C3179.714111,1890.292969 3177.262695,1888.209106 3175.245605,1888.567871 
	C3169.415039,1889.604858 3163.672852,1891.373535 3158.051025,1893.305420 
	C3140.512451,1899.331787 3123.033936,1905.525391 3103.955566,1906.908936 
	C3092.034424,1876.557861 3080.738281,1847.563232 3070.218262,1817.198486 
	C3083.833984,1804.387085 3096.428955,1792.656006 3109.570068,1781.572388 
	C3129.295654,1764.935791 3149.452881,1748.812378 3169.333984,1732.358765 
	C3184.629395,1719.700317 3199.866455,1706.967529 3214.935059,1694.041138 
	C3218.383545,1691.083008 3221.032471,1687.192993 3224.049072,1683.731812 
	C3224.049072,1683.731812 3224.038086,1684.030273 3224.630859,1683.694702 
	C3226.218262,1682.830688 3226.918945,1682.041626 3227.325928,1680.991821 
	C3228.031494,1680.748047 3228.737305,1680.504395 3230.536621,1680.014404 
	C3255.124512,1745.693604 3272.307617,1813.225952 3283.115479,1882.372559 
	C3290.084473,1926.958984 3289.472168,1971.145752 3275.958008,2014.641846 
	C3261.024902,2062.704590 3232.778076,2101.098145 3192.167236,2130.624268 
	C3158.989990,2154.746094 3121.848877,2170.923340 3083.522217,2184.545654 
	C3049.708252,2196.564697 3015.615723,2207.799561 2980.188965,2220.085449 
z"/>
<path fill="#FFFFFF" opacity="1.000000" stroke="none" 
	d="
M3488.550293,2697.593750 
	C3487.188965,2702.670898 3485.744385,2705.918457 3482.455078,2710.637695 
	C3477.726074,2714.697754 3474.769287,2717.210938 3471.972168,2719.891113 
	C3466.274658,2725.350342 3461.104248,2731.461182 3454.936035,2736.310303 
	C3433.660400,2753.037109 3408.480713,2758.458008 3382.213623,2759.520264 
	C3365.593018,2760.192627 3348.914062,2759.299316 3332.278076,2759.741699 
	C3314.081543,2760.225586 3296.690674,2756.341553 3279.471680,2751.268066 
	C3265.858398,2747.256836 3253.949219,2740.240234 3243.943848,2730.055420 
	C3241.160889,2727.222412 3238.222168,2724.449707 3234.959473,2722.230713 
	C3233.776855,2721.426025 3230.835449,2721.659668 3229.790771,2722.615479 
	C3228.632080,2723.675293 3227.985596,2726.319824 3228.444580,2727.884766 
	C3229.156494,2730.312744 3230.657227,2732.723145 3232.404541,2734.600586 
	C3251.911133,2755.562988 3276.336182,2766.904785 3304.637207,2768.009033 
	C3333.893555,2769.150391 3363.231934,2768.013672 3392.524414,2768.492432 
	C3404.019775,2768.680420 3415.340332,2767.525879 3425.858398,2763.683105 
	C3449.785889,2754.941895 3472.850586,2744.442871 3485.036133,2719.659180 
	C3506.567139,2723.872803 3528.232422,2727.521240 3549.561035,2732.586670 
	C3557.733643,2734.527588 3565.501953,2739.113770 3572.773193,2743.598877 
	C3578.359619,2747.044922 3578.121338,2755.179199 3572.575439,2758.843018 
	C3567.087646,2762.468750 3561.114502,2765.937744 3554.854492,2767.701904 
	C3539.509766,2772.025879 3524.052246,2776.602539 3508.322266,2778.763672 
	C3479.992188,2782.655762 3451.478516,2786.564941 3422.953125,2787.379639 
	C3374.378418,2788.766357 3325.700928,2788.893555 3277.131836,2787.410889 
	C3237.244141,2786.193359 3197.402100,2781.954834 3158.601318,2771.737305 
	C3148.446289,2769.063232 3138.488037,2764.774902 3129.252686,2759.737549 
	C3121.252686,2755.373779 3121.347656,2746.630127 3129.127197,2742.161377 
	C3136.539795,2737.903320 3144.567627,2734.072021 3152.814453,2732.037598 
	C3173.448975,2726.946777 3194.361084,2722.981201 3216.385742,2718.304199 
	C3216.138916,2715.728027 3215.847900,2712.691895 3214.733887,2708.304199 
	C3212.684570,2700.482666 3211.457764,2694.013184 3210.076172,2686.727539 
	C3206.176270,2685.597900 3202.284424,2684.922852 3198.782227,2683.369629 
	C3189.114014,2679.081299 3178.815918,2675.590088 3170.179443,2669.708984 
	C3137.307861,2647.325195 3130.026123,2605.882324 3152.616943,2573.210449 
	C3162.945068,2558.272705 3176.867920,2548.884277 3195.332764,2547.055420 
	C3199.843994,2546.608643 3204.343262,2546.041260 3209.805420,2545.420410 
	C3210.600586,2536.817383 3211.314941,2529.089844 3212.125000,2520.324951 
	C3216.349365,2519.036377 3220.627686,2517.731201 3226.659668,2517.765625 
	C3228.641357,2519.948975 3228.868896,2520.792725 3229.927979,2522.691406 
	C3234.855469,2528.256592 3240.501953,2527.415771 3245.654053,2527.805908 
	C3314.649902,2533.025391 3383.654297,2532.972656 3452.650635,2527.790527 
	C3456.580322,2527.495361 3460.728271,2527.204590 3464.283691,2525.729248 
	C3467.200439,2524.518799 3466.876221,2521.681396 3464.043213,2518.736816 
	C3464.027344,2517.004639 3464.005371,2516.311768 3463.983643,2515.619141 
	C3469.272217,2516.114990 3474.596924,2516.380859 3479.833496,2517.206543 
	C3482.364502,2517.605469 3484.729736,2519.056641 3486.920654,2519.931641 
	C3489.852783,2536.091064 3490.765869,2646.069092 3488.550293,2697.593750 
M3188.291748,2589.493652 
	C3185.261963,2594.564209 3181.628906,2599.377686 3179.335693,2604.761719 
	C3175.339355,2614.144043 3177.192871,2623.237549 3183.608887,2630.951172 
	C3190.399902,2639.115723 3198.361084,2645.623779 3210.043213,2645.185547 
	C3212.497070,2612.496338 3211.917480,2597.531738 3207.650391,2584.743408 
	C3201.825928,2583.530518 3196.132812,2584.153320 3188.291748,2589.493652 
z"/>
<path fill="#1015C2" opacity="1.000000" stroke="none" 
	d="
M2629.157959,2652.095703 
	C2647.514160,2639.414062 2667.662109,2626.669922 2688.001709,2614.239258 
	C2744.702148,2579.584717 2799.528076,2542.214600 2851.726562,2501.072021 
	C2878.888916,2479.662598 2904.204102,2456.155273 2927.541016,2430.633057 
	C2936.471924,2420.865479 2944.479004,2410.210693 2952.446777,2399.614014 
	C2969.695068,2376.676025 2977.109131,2349.966309 2982.187500,2320.869141 
	C2999.049316,2323.820312 3015.317871,2327.268311 3031.038818,2332.395508 
	C3057.556152,2341.043213 3084.060303,2349.923584 3109.924805,2360.312988 
	C3127.104248,2367.213867 3143.206299,2376.822998 3159.704102,2385.386963 
	C3172.389893,2391.972656 3181.832520,2402.553223 3190.938477,2413.041992 
	C3202.833984,2426.743896 3207.232666,2443.960693 3194.526855,2464.194580 
	C3186.949951,2476.260742 3177.074951,2486.044189 3166.094727,2494.674561 
	C3138.163330,2516.628662 3106.522217,2532.447510 3074.173340,2546.339600 
	C3043.092041,2559.687012 3011.305420,2571.735352 2979.076172,2581.988037 
	C2925.365234,2599.074463 2871.047363,2614.214355 2815.463867,2624.308350 
	C2782.901855,2630.221436 2750.593262,2637.827881 2717.850342,2642.358643 
	C2689.039795,2646.345215 2660.458496,2653.316895 2629.157959,2652.095703 
z"/>
<path fill="#F84C34" opacity="1.000000" stroke="none" 
	d="
M2023.639160,2621.826904 
	C2035.155640,2632.843994 2046.962280,2645.182861 2058.124512,2658.079590 
	C2078.415771,2681.523438 2098.387939,2705.244873 2118.367920,2728.956055 
	C2130.688232,2743.576904 2142.776367,2758.393066 2155.488525,2774.336670 
	C2151.249512,2777.783447 2146.615723,2780.347900 2141.709473,2782.187012 
	C2124.964844,2788.462158 2109.760010,2797.508057 2093.709717,2807.746826 
	C2077.706055,2769.553467 2063.086182,2731.075928 2048.339355,2692.646729 
	C2040.723633,2672.800049 2032.796875,2653.072754 2025.234131,2633.206055 
	C2024.079956,2630.174316 2024.140137,2626.680420 2023.639160,2621.826904 
z"/>
<path fill="#DB664F" opacity="1.000000" stroke="none" 
	d="
M1665.787109,3279.982910 
	C1659.155518,3276.834473 1659.768311,3271.604736 1661.198975,3266.264648 
	C1666.686646,3245.781006 1672.374878,3225.349854 1677.713623,3204.827637 
	C1688.057861,3165.063477 1697.948242,3125.179443 1708.515381,3085.475342 
	C1723.858154,3027.827637 1739.753906,2970.327393 1755.153198,2912.694580 
	C1759.941406,2894.774414 1763.890015,2876.629883 1768.210815,2858.585205 
	C1769.422974,2853.522949 1770.634155,2848.478760 1776.535522,2845.750977 
	C1781.366333,2850.272705 1780.255493,2855.607178 1779.103760,2860.500488 
	C1775.307983,2876.626709 1771.302490,2892.708496 1767.077148,2908.728027 
	C1761.499023,2929.875977 1755.514526,2950.916260 1749.921143,2972.060303 
	C1736.531250,3022.676270 1723.223633,3073.314453 1709.969116,3123.966064 
	C1700.573486,3159.871094 1691.251953,3195.796143 1682.089111,3231.760986 
	C1680.967651,3236.162842 1681.033691,3240.867188 1681.026123,3247.082031 
	C1681.503052,3248.732666 1681.216064,3248.663330 1679.897949,3248.932617 
	C1677.739502,3251.459717 1676.899414,3253.717285 1676.059326,3255.975098 
	C1673.053223,3263.761230 1670.047241,3271.547363 1665.787109,3279.982910 
z"/>
<path fill="#E0E0E0" opacity="1.000000" stroke="none" 
	d="
M3229.096680,2521.636475 
	C3228.868896,2520.792725 3228.641357,2519.948975 3228.288818,2517.800293 
	C3241.809814,2513.976074 3255.362793,2510.642334 3269.117188,2509.075684 
	C3333.461426,2501.747314 3397.671631,2502.541504 3462.791992,2514.664062 
	C3464.005371,2516.311768 3464.027344,2517.004639 3462.351562,2518.930664 
	C3383.398193,2509.631592 3306.207520,2509.361816 3229.096680,2521.636475 
z"/>
<path fill="#FB8871" opacity="1.000000" stroke="none" 
	d="
M1677.250977,3255.479004 
	C1676.899414,3253.717285 1677.739502,3251.459717 1679.786743,3248.835693 
	C1680.143311,3250.640869 1679.292969,3252.812012 1677.250977,3255.479004 
z"/>
<path fill="#FAC008" opacity="1.000000" stroke="none" 
	d="
M3037.974609,1943.296265 
	C3025.052490,1954.129028 3009.052002,1959.220093 2994.199707,1966.343140 
	C2973.908691,1976.074585 2953.044922,1984.603027 2932.561035,1993.942505 
	C2895.188965,2010.982178 2857.926758,2028.262817 2820.580322,2045.358643 
	C2817.601807,2046.721924 2814.324463,2047.432495 2809.707031,2048.722656 
	C2807.779053,2039.021362 2808.914795,2029.375732 2810.953125,2019.458008 
	C2813.998291,2004.642700 2814.369873,1989.285645 2816.040039,1974.177002 
	C2817.273193,1963.020752 2818.565674,1951.864014 2820.187256,1940.759277 
	C2822.378906,1925.749878 2825.115479,1910.818970 2827.237061,1895.800781 
	C2829.085205,1882.718872 2830.264160,1869.543823 2831.991455,1856.443237 
	C2834.319092,1838.786255 2837.062256,1821.182983 2839.300293,1803.515381 
	C2841.127197,1789.093994 2842.387695,1774.601685 2844.063965,1760.159912 
	C2845.281982,1749.666626 2846.610840,1739.181030 2848.171387,1728.734009 
	C2850.412109,1713.731445 2853.113770,1698.796021 2855.235107,1683.777832 
	C2857.083008,1670.695801 2858.258545,1657.520020 2859.985840,1644.419189 
	C2862.313721,1626.761841 2865.059814,1609.158691 2867.297852,1591.490723 
	C2869.124268,1577.069702 2870.223145,1562.555542 2872.112305,1548.144043 
	C2873.362061,1538.612183 2875.438721,1529.188599 2877.579590,1517.304443 
	C2885.517090,1528.645508 2887.287842,1539.956421 2890.664062,1550.383423 
	C2898.209961,1573.687744 2904.631348,1597.353638 2911.729736,1620.806030 
	C2925.165527,1665.197266 2938.767578,1709.538208 2952.271973,1753.908691 
	C2954.908203,1762.570435 2959.838135,1765.672363 2968.897461,1763.052124 
	C2978.449707,1760.289185 2987.689941,1756.457397 2997.215332,1753.586670 
	C3004.782227,1751.306152 3012.573486,1749.770386 3022.167725,1749.671387 
	C3028.705078,1815.391357 3033.339844,1879.343872 3037.974609,1943.296265 
z"/>
<path fill="#FAC008" opacity="1.000000" stroke="none" 
	d="
M2397.249512,1750.798706 
	C2376.697998,1746.173340 2357.286377,1740.354248 2336.835693,1733.554932 
	C2338.962402,1717.008179 2342.112061,1701.438232 2345.298096,1685.875732 
	C2354.322998,1641.788940 2363.262451,1597.684204 2372.430176,1553.627075 
	C2379.147705,1521.344727 2386.172607,1489.126587 2393.116211,1456.619141 
	C2397.794678,1460.086060 2395.872070,1464.614624 2395.881592,1468.451538 
	C2396.050537,1537.082642 2396.034180,1605.714355 2396.114014,1674.345825 
	C2396.125488,1684.291748 2397.441162,1694.087402 2398.664307,1703.973877 
	C2400.516113,1718.943848 2398.666748,1734.371704 2397.249512,1750.798706 
z"/>
<path fill="#F84C34" opacity="1.000000" stroke="none" 
	d="
M3222.434082,1683.721069 
	C3221.032471,1687.192993 3218.383545,1691.083008 3214.935059,1694.041138 
	C3199.866455,1706.967529 3184.629395,1719.700317 3169.333984,1732.358765 
	C3149.452881,1748.812378 3129.295654,1764.935791 3109.570068,1781.572388 
	C3096.428955,1792.656006 3083.833984,1804.387085 3069.445557,1816.067261 
	C3055.912598,1792.224854 3043.928223,1768.143677 3031.944092,1744.062378 
	C3035.473633,1742.407593 3038.870605,1740.337402 3042.552979,1739.160645 
	C3097.448242,1721.618164 3152.372803,1704.167847 3207.321045,1686.791626 
	C3211.706543,1685.404785 3216.314453,1684.720947 3222.434082,1683.721069 
z"/>
<path fill="#414ADF" opacity="1.000000" stroke="none" 
	d="
M3030.714111,1744.069946 
	C3043.928223,1768.143677 3055.912598,1792.224854 3068.669434,1817.437378 
	C3080.738281,1847.563232 3092.034424,1876.557861 3103.589355,1908.071533 
	C3102.416992,1913.491211 3100.985840,1916.391724 3099.554443,1919.292236 
	C3084.168701,1925.958496 3068.814941,1932.701172 3053.375244,1939.239868 
	C3049.285400,1940.971924 3044.929932,1942.076294 3039.335449,1943.382568 
	C3033.339844,1879.343872 3028.705078,1815.391357 3023.747559,1749.621338 
	C3025.444824,1746.561646 3027.464355,1745.319580 3030.714111,1744.069946 
z"/>
<path fill="#F84C34" opacity="1.000000" stroke="none" 
	d="
M3226.523438,1681.210205 
	C3226.918945,1682.041626 3226.218262,1682.830688 3224.481445,1683.696533 
	C3224.018555,1682.875000 3224.678955,1682.006592 3226.523438,1681.210205 
z"/>
<path fill="#DB664F" opacity="1.000000" stroke="none" 
	d="
M2274.670410,2413.196533 
	C2261.087891,2422.899658 2245.983643,2432.509277 2230.458496,2441.383057 
	C2187.181641,2466.119385 2143.723877,2490.539062 2100.351074,2515.107422 
	C2081.847168,2525.589111 2063.397217,2536.166260 2044.879272,2546.623047 
	C2039.090454,2549.892090 2033.217529,2553.025146 2027.271851,2555.998047 
	C2023.306885,2557.980713 2019.339111,2561.732666 2014.618164,2557.783936 
	C2012.333252,2555.872559 2015.058472,2551.761475 2021.449097,2547.767578 
	C2026.518799,2544.598877 2031.681763,2541.570557 2036.887329,2538.628906 
	C2102.272217,2501.678467 2167.709473,2464.820557 2233.001465,2427.707275 
	C2238.555908,2424.550049 2245.375244,2422.478516 2248.583008,2414.299561 
	C2256.968750,2412.883545 2264.962891,2412.825195 2274.670410,2413.196533 
z"/>
<path fill="#414ADF" opacity="1.000000" stroke="none" 
	d="
M1851.802246,2635.688721 
	C1856.191284,2644.530762 1860.514648,2653.406494 1864.991943,2662.203857 
	C1868.220703,2668.548096 1870.081299,2675.741455 1876.296509,2681.887695 
	C1882.410889,2678.887695 1888.370361,2676.310547 1893.998901,2673.145020 
	C1926.921753,2654.628174 1959.747192,2635.938232 1992.664429,2617.411377 
	C1996.659790,2615.162598 2001.008911,2613.541992 2006.677856,2611.749023 
	C2006.438843,2613.853271 2004.935059,2616.093994 2002.960449,2617.785156 
	C1969.098389,2646.786377 1935.215088,2675.763428 1901.256714,2704.652100 
	C1880.988281,2721.894775 1860.232056,2738.581787 1840.349976,2756.255127 
	C1824.947632,2769.946533 1810.564819,2784.784424 1795.719238,2799.102539 
	C1792.986206,2801.738281 1790.207153,2804.326416 1787.651611,2806.745117 
	C1782.403809,2804.281250 1784.488281,2800.567139 1784.356689,2797.658691 
	C1784.207397,2794.354736 1784.462036,2790.982422 1784.971069,2787.706543 
	C1788.874146,2762.585693 1788.492310,2737.277100 1788.135254,2711.997314 
	C1787.947510,2698.712402 1787.240967,2685.395508 1785.904785,2672.180420 
	C1785.126099,2664.479004 1789.159424,2661.304932 1797.351562,2657.535645 
	C1817.051880,2649.433350 1834.427002,2642.561035 1851.802246,2635.688721 
z"/>
<path fill="#F84C34" opacity="1.000000" stroke="none" 
	d="
M1851.655518,2634.241699 
	C1834.427002,2642.561035 1817.051880,2649.433350 1798.264893,2656.458496 
	C1795.830933,2636.124756 1792.282959,2615.991699 1788.942139,2595.788574 
	C1785.284302,2573.668213 1783.072876,2551.313232 1779.801636,2529.123535 
	C1776.244263,2504.994141 1772.175659,2480.939941 1768.389160,2456.843750 
	C1768.082764,2454.894287 1768.232910,2452.873047 1768.344971,2449.159668 
	C1773.047485,2456.253906 1777.998779,2464.885010 1782.032959,2473.925293 
	C1802.071533,2518.830322 1821.901733,2563.828613 1841.718506,2608.832275 
	C1845.194580,2616.726318 1848.255981,2624.802490 1851.655518,2634.241699 
z"/>
<path fill="#DB664F" opacity="1.000000" stroke="none" 
	d="
M1420.104614,3496.146973 
	C1427.891113,3484.189453 1435.381104,3473.304443 1443.523071,3462.931396 
	C1464.735840,3435.907471 1486.232178,3409.106201 1507.619995,3382.219482 
	C1515.767090,3371.978271 1519.224365,3360.081055 1519.943848,3347.235596 
	C1521.384521,3321.512451 1520.343506,3295.339111 1524.951172,3270.199463 
	C1528.921631,3248.537598 1524.670654,3226.431885 1531.453979,3205.212158 
	C1533.191284,3199.777588 1531.830200,3193.352783 1531.854126,3185.592041 
	C1532.870361,3180.597900 1533.924927,3177.394531 1535.694580,3173.129639 
	C1543.771362,3175.605713 1545.348022,3182.343750 1543.410156,3188.949707 
	C1539.392822,3202.644287 1542.128418,3216.929199 1539.426636,3230.325439 
	C1534.943115,3252.555664 1538.780640,3275.428711 1532.595093,3297.332764 
	C1532.064697,3299.211182 1531.963135,3301.316895 1532.141968,3303.273193 
	C1534.093872,3324.618652 1528.389404,3345.439453 1527.764893,3366.617188 
	C1527.656006,3370.312012 1526.138672,3374.547852 1523.906860,3377.503174 
	C1509.947510,3395.987061 1495.656128,3414.222412 1481.364258,3432.453369 
	C1469.114014,3448.079590 1456.239380,3463.243652 1444.580688,3479.294922 
	C1438.535400,3487.617920 1431.789551,3494.407959 1421.440186,3499.483887 
	C1420.190063,3499.191895 1420.147705,3498.322266 1420.104614,3496.146973 
z"/>
<path fill="#1015C2" opacity="1.000000" stroke="none" 
	d="
M1762.747559,2432.013184 
	C1764.561768,2433.863281 1764.704224,2435.666748 1765.023438,2438.815918 
	C1744.794922,2452.379639 1724.389526,2464.598389 1702.653809,2477.318359 
	C1698.945801,2475.614258 1695.894165,2473.803467 1694.323975,2471.124756 
	C1690.473999,2464.555420 1691.406372,2458.484375 1697.044312,2453.462158 
	C1700.395386,2450.477051 1704.277466,2447.591797 1708.436646,2446.096680 
	C1725.570068,2439.937012 1742.668701,2433.450195 1762.747559,2432.013184 
z"/>
<path fill="#F84C34" opacity="1.000000" stroke="none" 
	d="
M2020.451172,2616.822266 
	C2021.232056,2616.670898 2022.249390,2617.493896 2023.482666,2619.301270 
	C2022.694946,2619.456055 2021.691284,2618.626709 2020.451172,2616.822266 
z"/>
<path fill="#414ADF" opacity="1.000000" stroke="none" 
	d="
M2009.120605,2611.790039 
	C2008.909058,2611.184570 2009.989380,2610.258545 2011.866211,2609.690430 
	C2011.912476,2610.522217 2011.162354,2610.996094 2009.120605,2611.790039 
z"/>
<path fill="#E0E0E0" opacity="1.000000" stroke="none" 
	d="
M3484.835449,2718.300537 
	C3472.850586,2744.442871 3449.785889,2754.941895 3425.858398,2763.683105 
	C3415.340332,2767.525879 3404.019775,2768.680420 3392.524414,2768.492432 
	C3363.231934,2768.013672 3333.893555,2769.150391 3304.637207,2768.009033 
	C3276.336182,2766.904785 3251.911133,2755.562988 3232.404541,2734.600586 
	C3230.657227,2732.723145 3229.156494,2730.312744 3228.444580,2727.884766 
	C3227.985596,2726.319824 3228.632080,2723.675293 3229.790771,2722.615479 
	C3230.835449,2721.659668 3233.776855,2721.426025 3234.959473,2722.230713 
	C3238.222168,2724.449707 3241.160889,2727.222412 3243.943848,2730.055420 
	C3253.949219,2740.240234 3265.858398,2747.256836 3279.471680,2751.268066 
	C3296.690674,2756.341553 3314.081543,2760.225586 3332.278076,2759.741699 
	C3348.914062,2759.299316 3365.593018,2760.192627 3382.213623,2759.520264 
	C3408.480713,2758.458008 3433.660400,2753.037109 3454.936035,2736.310303 
	C3461.104248,2731.461182 3466.274658,2725.350342 3471.972168,2719.891113 
	C3474.769287,2717.210938 3477.726074,2714.697754 3481.945312,2711.867432 
	C3483.731689,2713.397949 3484.183105,2715.169922 3484.835449,2718.300537 
z"/>
<path fill="#FFFFFF" opacity="1.000000" stroke="none" 
	d="
M2330.815674,822.571655 
	C2335.162354,820.160522 2335.958496,820.540833 2334.262939,824.707031 
	C2332.688232,824.659363 2332.142334,824.072693 2330.815674,822.571655 
z"/>
<path fill="#FFFFFF" opacity="1.000000" stroke="none" 
	d="
M2457.325684,1060.964111 
	C2485.070801,1044.530029 2499.027100,1039.567261 2523.546387,1037.151001 
	C2528.027344,1043.255859 2524.725098,1049.937500 2523.352783,1055.793701 
	C2519.762207,1071.117310 2511.649902,1083.671753 2497.209961,1091.340698 
	C2484.217773,1098.240601 2471.612549,1097.508301 2460.010986,1088.699585 
	C2454.380127,1084.424194 2449.772705,1078.801025 2445.400635,1074.478760 
	C2446.364990,1066.368042 2452.312256,1065.082764 2457.325684,1060.964111 
z"/>
<path fill="#DB664F" opacity="1.000000" stroke="none" 
	d="
M3101.182617,1919.487549 
	C3100.985840,1916.391724 3102.416992,1913.491211 3104.214600,1909.428101 
	C3123.033936,1905.525391 3140.512451,1899.331787 3158.051025,1893.305420 
	C3163.672852,1891.373535 3169.415039,1889.604858 3175.245605,1888.567871 
	C3177.262695,1888.209106 3179.714111,1890.292969 3181.967285,1891.261108 
	C3180.967773,1893.492920 3180.196045,1895.874634 3178.868164,1897.890137 
	C3178.253906,1898.822021 3176.596680,1899.172729 3175.342529,1899.561401 
	C3153.823242,1906.227783 3132.312500,1912.924805 3110.737549,1919.406372 
	C3108.288574,1920.141968 3105.461914,1919.621094 3101.182617,1919.487549 
z"/>
<path fill="#661728" opacity="1.000000" stroke="none" 
	d="
M3229.927979,2522.691406 
	C3306.207520,2509.361816 3383.398193,2509.631592 3462.345703,2519.970459 
	C3466.876221,2521.681396 3467.200439,2524.518799 3464.283691,2525.729248 
	C3460.728271,2527.204590 3456.580322,2527.495361 3452.650635,2527.790527 
	C3383.654297,2532.972656 3314.649902,2533.025391 3245.654053,2527.805908 
	C3240.501953,2527.415771 3234.855469,2528.256592 3229.927979,2522.691406 
z"/>
<path fill="#414ADF" opacity="1.000000" stroke="none" 
	d="
M3189.568359,2588.604248 
	C3196.132812,2584.153320 3201.825928,2583.530518 3207.650391,2584.743408 
	C3211.917480,2597.531738 3212.497070,2612.496338 3210.043213,2645.185547 
	C3198.361084,2645.623779 3190.399902,2639.115723 3183.608887,2630.951172 
	C3177.192871,2623.237549 3175.339355,2614.144043 3179.335693,2604.761719 
	C3181.628906,2599.377686 3185.261963,2594.564209 3189.568359,2588.604248 
z"/>
</svg>